<svg xmlns="http://www.w3.org/2000/svg"><defs><font horiz-adv-x="1020"><font-face units-per-em="2048" ascent="1536" descent="-512"/><glyph unicode="ﬁ" horiz-adv-x="1135" d="M25 858q0 29 2.5 49t7 31.5 12 16.5 17.5 5h111v79q0 91 18.5 159t56.5 113.5 96 68 137 22.5q22 0 44.5-2t42.5-6 35-9 20.5-10.5 9-12.5 6-18 3.5-28.5 1-43.5q0-48-5.5-67.5T618 1185q-6 0-13.5 2t-18 5-24.5 5.5-35 2.5q-53 0-77-36t-24-119v-85h506q38 0 57-16.5t19-52.5V34q0-10-6-17.5T982 4t-38.5-7.5T883-6q-37 0-61.5 2.5T783 4t-20 12.5-6 17.5v722H426V34q0-10-6-17.5T400 4t-38.5-7.5T300-6q-36 0-60.5 2.5t-39 7.5-20 12.5T175 34v722H63q-19 0-28.5 23.5T25 858zm718 368q0 36 6.5 61t23 41 44.5 23 69 7 68.5-7 43.5-23 22.5-41 6.5-61q0-37-6.5-62.5t-22.5-41-43.5-22-68.5-6.5-69 6.5-44.5 22-23 41-6.5 62.5z"/><glyph unicode="ﬂ" horiz-adv-x="1135" d="M25 858q0 29 2.5 49t7 31.5 12 16.5 17.5 5h111v77q0 90 20 158.5t63.5 114 110 68T529 1400q27 0 57.5-2t59.5-5.5 50-8 33-9 19-10.5 10-15q1 9 5.5 16t17 13 37 9.5 65.5 3.5q36 0 60.5-3t38.5-8.5 20-13.5 6-18V34q0-10-6-17.5T982 4t-38.5-7.5T883-6q-37 0-61.5 2.5T783 4t-20 12.5-6 17.5v1158q-3-6-8.5-9t-13.5-3q-11 0-29 4t-40 7.5-43.5 5-42.5 1.5q-45 0-75-9t-47.5-27.5T433 1113t-7-71v-82h148q10 0 17.5-5t12.5-16.5 7.5-31.5 2.5-49q0-55-10-78.5T575 756H426V34q0-10-6-17.5T400 4t-38.5-7.5T300-6q-36 0-60.5 2.5t-39 7.5-20 12.5T175 34v722H63q-19 0-28.5 23.5T25 858z"/><glyph unicode="ﬃ" horiz-adv-x="1718" d="M25 858q0 29 2.5 49t7 31.5 12 16.5 17.5 5h111v66q0 90 18.5 158t57 113.5 97 68.5 138.5 23q44 0 78.5-7t53.5-14 26-13.5 11.5-19 6.5-32 2-48.5q0-49-6.5-69t-21.5-20q-7 0-16 3t-21.5 7-29 7.5-36.5 3.5q-57 0-82-36.5T426 1031v-71h331v79q0 91 19 159t57 113.5 96 68 137 22.5q21 0 44.5-2t43-6 34.5-9 20.5-10.5 9-12.5 6-18 3.5-28.5 1-43.5q0-48-5.5-67.5T1201 1185q-6 0-13.5 2t-18 5-25 5.5-34.5 2.5q-54 0-78-36t-24-119v-85h507q38 0 57.5-16.5T1592 891V34q0-10-6-17.5T1565.5 4 1527-3.5 1466-6t-61 2.5-38.5 7.5-20.5 12.5-6 17.5v722h-332V34q0-10-6-17.5T982 4t-38.5-7.5T883-6q-37 0-61.5 2.5T783 4t-20 12.5-6 17.5v722H426V34q0-10-6-17.5T400 4t-39-7.5T300-6t-60.5 2.5-39 7.5-20 12.5T175 34v722H63q-19 0-28.5 23.5T25 858zm1300 368q0 36 7 61t23.5 41 44 23 68.5 7q42 0 69.5-7t44-23 23-41 6.5-61q0-37-6.5-62.5t-23-41-44-22-69.5-6.5q-41 0-68.5 6.5t-44 22-23.5 41-7 62.5z"/><glyph unicode="ﬄ" horiz-adv-x="1718" d="M25 858q0 29 2.5 49t7 31.5 12 16.5 17.5 5h111v66q0 90 18.5 158t57 113.5 97 68.5 138.5 23q44 0 79-7.5t53.5-14 25.5-13 11.5-19 6.5-32 2-48.5q0-49-6.5-69t-21.5-20q-7 0-16 3l-21 7-28.5 7.5-36.5 3.5q-58 0-83-36.5T426 1031v-71h331v79q0 91 20.5 159t64 113.5 110 68T1112 1402q27 0 58-2t59-5.5 49.5-8 33.5-8.5 18.5-10.5 10.5-17.5q1 9 5 16t17.5 13 38 9.5 64.5 3.5q37 0 61-3t38.5-8.5 20.5-13.5 6-18V34q0-10-6-17.5T1565.5 4 1527-3.5 1466-6t-61 2.5-38.5 7.5-20.5 12.5-6 17.5v1161q-4-6-9-9.5t-14-3.5q-10 0-28 4t-40 7.5-43.5 5-42.5 1.5q-45 0-75-8.5t-47.5-27.5-25-48.5-7.5-70.5v-85h149q10 0 17-5t12.5-16.5 8-31.5 2.5-49q0-55-10.5-78.5T1158 756h-150V34q0-10-6-17.5T982 4t-38.5-7.5T883-6q-37 0-61.5 2.5T783 4t-20 12.5-6 17.5v722H426V34q0-10-6-17.5T400 4t-39-7.5T300-6t-60.5 2.5-39 7.5-20 12.5T175 34v722H63q-19 0-28.5 23.5T25 858z"/><glyph horiz-adv-x="2048"/><glyph horiz-adv-x="2048"/><glyph horiz-adv-x="2048"/><glyph horiz-adv-x="463"/><glyph horiz-adv-x="463"/><glyph horiz-adv-x="463"/><glyph unicode="!" horiz-adv-x="667" d="M230 131q0 42 6.5 70.5t22.5 46 43.5 25T371 280t68-7.5 43.5-25 23-46T512 131q0-41-6.5-69t-23-45T439-7.5 371-15t-68.5 7.5T259 17t-22.5 45-6.5 69zm5 1201q0 13 6 23t21.5 16.5 42 9.5 66.5 3 66-3.5 41.5-10 22-16 6.5-22.5l-26-908q-1-10-6-18t-17.5-13.5-34-8.5-52.5-3q-32 0-53 3t-33.5 8.5T267 406t-6 18z"/><glyph unicode="&quot;" horiz-adv-x="898" d="M122 1357q-1 10 5 18t19.5 13.5 35.5 8 54 2.5q65 0 89.5-10.5T350 1357l-24-447q0-10-4.5-18T307 879t-27.5-8-43.5-3q-27 0-44 3t-27.5 8-14.5 13-5 18zm380 0q0 10 6 18t19.5 13.5 35.5 8 54 2.5 54-2.5 35.5-8T725 1375t5-18l-23-447q0-10-4.5-18t-15-13-27.5-8-43-3q-27 0-44.5 3t-27.5 8-14.5 13-4.5 18z"/><glyph unicode="#" d="M28 428q0 24 3 41t8 27 12 14.5 16 4.5h116l34 285H116q-17 0-27.5 19T78 885q0 48 11 67t28 19h120l36 292q0 9 5 15.5t17 11.5 32 7.5 51 2.5 50-2.5 29-7.5 12.5-11.5 2.5-14.5l-37-293h224l34 292q1 8 6 15t16.5 12 31.5 7.5 52 2.5q31 0 50-2.5t29-7.5 12.5-11.5 1.5-14.5l-35-293h96q17 0 27.5-19.5T991 886q0-24-3-40.5t-8-26.5-12.5-14.5T952 800H838l-34-285h98q17 0 27.5-19.5T940 430q0-24-3-41t-8-27-12.5-14.5T901 343H782L745 30q-1-9-5.5-15.5T723.5 3t-31-7T643-6q-32 0-51.5 2T562 3t-13.5 11.5T546 30l38 313H360L323 30q-1-8-5.5-15T302 3t-30.5-7T220-6q-31 0-50 2t-29.5 7-14 11.5T125 30l36 313H66q-17 0-27.5 19T28 428zm353 87h223l35 285H415z"/><glyph unicode="$" horiz-adv-x="1038" d="M82 187q0 34 2 56t7 34 12.5 16.5T121 298q13 0 38-15t64-33 94.5-33T448 202q117 0 174 43.5T679 361q0 48-24.5 79T589 494.5t-92.5 42T391 576t-105.5 49-92.5 69-65.5 99.5T103 935q0 75 25 136.5t72 107.5 115.5 74.5T471 1292l20 201q1 8 4.5 13.5t13 10 25.5 6.5 42 2q31 0 51.5-3t31.5-8.5 14-14.5 3-20l-20-189q28-4 59-11t58-16.5 49-20 30.5-19 13-17 7-21 3.5-30 1-40.5q0-31-1.5-51t-5.5-30.5-9-14-12-3.5q-13 0-38 13t-61.5 28-84 28-104.5 13q-52 0-89-10t-60-28-34-43-11-55q0-47 25-79t66.5-55 94-42 107-40 107-48.5 93.5-68 66-98T951 393q0-86-30.5-155T834 119 699 39 524 1l-21-214q-1-8-4.5-14t-13-10-26-6.5T418-246q-32 0-51.5 3t-30.5 8.5-14.5 14.5-1.5 20L341 3q-43 6-81 15.5t-69 21T137.5 63t-34 23.5-16.5 34-5 66.5z"/><glyph unicode="%" horiz-adv-x="1493" d="M57 968q0 75 17 137.5t53.5 108.5 94 71.5T360 1311q89 0 146.5-27t90.5-73 46-107 13-128q0-79-17.5-142.5T584 725t-94.5-70T352 630q-85 0-142 25t-91 69.5T71 831 57 968zM170.5.5Q172 11 183 26l922 1263q9 11 18 19t23.5 13 34.5 7 49 2q33 0 52.5-4t28-12 6.5-19-12-25L383 7q-9-12-18.5-19.5T341-25t-34-7-49-2q-33 0-52.5 4t-28 12-7 18.5zM255 974q0-62 7-101.5t20-62 32-31 44-8.5q29 0 48 11.5t30.5 35.5 16.5 61.5 5 89.5q0 55-6 93.5t-18 62.5-32 35-47 11q-25 0-44-10.5t-31.5-34-18.5-61-6-91.5zm582-653q0 75 17 137.5T907.5 567t94 71.5T1140 664q89 0 146.5-27t90.5-73 46-107 13-128q0-79-17.5-142.5T1364 78t-94.5-70T1132-17q-85 0-142 25t-91 69.5T851 184t-14 137zm198 6q0-62 7-101.5t20-62 32-31 44-8.5q29 0 48 11.5t30.5 35.5 16.5 61.5 5 89.5q0 55-6 93.5t-18 62.5-32 35-47 11q-25 0-44-10.5t-31.5-34-18.5-61-6-91.5z"/><glyph unicode="&" horiz-adv-x="1443" d="M0 1294zm82-933q0 56 16.5 105.5T148 560t81.5 84T342 722q-36 46-62.5 86.5t-44 77.5-26 70.5-8.5 66.5q0 70 25 131.5t78 106.5 135 71.5 197 26.5q105 0 181-20t125-56.5 73-90 24-120.5q0-60-20.5-111t-62-97T853 775.5 708 690q27-31 60.5-65.5t69-69T909 487t70-63q13 20 23.5 46t18 55 12 59 4.5 59v31q0 11 4 19t16.5 13 36 7.5 60.5 2.5q35 0 58-1.5t36.5-6.5 19-13.5 5.5-21.5v-32q0-48-7-97t-20.5-95.5-33.5-89-44-79.5q35-27 60.5-45t43.5-28.5 30-14.5 20-4h20.5l15.5-7 9-25 3-53q0-37-1.5-58t-5-31-12-16.5-28.5-12-48-5.5q-22 0-45.5 5.5t-54.5 21-72 41-95 65.5q-47-32-97-57.5T806.5 13 694-13t-124-9q-65 0-127 10T326.5 18.5 227 70t-77 73.5-50 97T82 361zm272 14q0-43 16-79t46-62 74.5-40.5T593 179q30 0 59.5 5.5t58 15 54 23T812 252q-45 36-90.5 76.5T633 410t-82.5 81.5T480 568q-35-22-58.5-45.5T383 475t-22-49-7-51zm112 661q0-21 7-43.5t19.5-47 31.5-52 43-59.5q59 32 98.5 59t63.5 52.5 34 51 10 52.5q0 24-9 45t-28 36.5-47 24.5-66 9q-42 0-71.5-9.5t-48.5-27-28-41-9-50.5z"/><glyph unicode="'" horiz-adv-x="478" d="M122 1357q-1 10 5.5 18t20.5 13.5 36.5 8 54.5 2.5q33 0 55-2.5t36-7.5 20-13 5-19l-23-447q0-11-5-19t-16-13-28.5-7.5T239 868q-27 0-44.5 3t-28.5 8-15.5 13-5.5 18z"/><glyph unicode="(" horiz-adv-x="638" d="M107 538q0 112 13.5 221.5t40.5 217 66.5 213.5 92.5 211q2 5 8 9t18 7.5 32.5 5 52.5 1.5q36 0 59-3.5t35-10.5 13.5-18-3.5-24q-84-195-127-402.5T365 540q0-219 43.5-425.5T534-290q6-16 6-27.5T529-337t-33.5-12-62.5-4q-28 0-48 2t-33.5 5.5-21 9T320-324q-54 104-94 209.5t-66.5 213-39.5 217T107 538z"/><glyph unicode=")" horiz-adv-x="638" d="M97-317.5q0 11.5 6 27.5 83 196 126.5 403.5T273 540q0 218-43 425.5T102 1368q-5 13-3.5 24t14 18 35 10.5 59.5 3.5q31 0 51-1.5t33-5 18.5-7.5 8.5-9q104-210 158-424.5T530 538q0-113-13-222.5t-39.5-217-66-213T318-324q-3-7-10.5-12.5t-21-9T253-351t-48-2q-41 0-63.5 4T108-337t-11 19.5z"/><glyph unicode="*" d="M135 908q-1 24 18 31l238 92-238 92q-19 7-18 31t30 74 49.5 63 35.5-1l199-159-40 251q-5 20 17 31.5t80 11.5 80-11.5 17-31.5l-40-251 199 159q16 14 35.5.5T847 1227q29-49 30.5-73t-18.5-31l-237-92 237-92q20-7 18.5-31T847 834t-49-62.5-36 .5L563 931l40-251q5-21-17-32t-80-11-80 11-17 32l40 251-199-159q-15-13-35 0t-50 63q-29 49-30 73z"/><glyph unicode="+" d="M52 575q0 27 3 46.5t8.5 31T76 669t16 5h313v338q0 10 5.5 18.5t17.5 14 32 8.5 50 3 50-3 32-8.5 17-14 5-18.5V674h314q8 0 15.5-5t13-16.5 8.5-31 3-46.5q0-28-3-47t-9-30.5-14-16.5-17-5H614V137q0-10-5-17.5t-17-13-32-8.5-50-3-50 3-32 8.5-17.5 13T405 137v339H95q-9 0-16.5 5T65 497.5 55.5 528 52 575z"/><glyph unicode="," horiz-adv-x="528" d="M23.5-269q-.5 8 4.5 19L150 26v158q0 34 8 55t25 32 43 14.5 63 3.5q35 0 60-3.5t41.5-14.5 24-32 7.5-55q0-40-4-72.5T405 50 382-6.5 347-63L213-255q-7-10-15.5-17T177-283t-29-6.5-43-2.5q-29 0-47 2.5T32-282t-8.5 13z"/><glyph unicode="-" horiz-adv-x="627" d="M59 503q0 56 11 79t36 23h416q12 0 20.5-5t14.5-17 8.5-32 2.5-48q0-58-11-81t-35-23H106q-25 0-36 23.5T59 503z"/><glyph unicode="­" horiz-adv-x="627" d="M59 503q0 56 11 79t36 23h416q12 0 20.5-5t14.5-17 8.5-32 2.5-48q0-58-11-81t-35-23H106q-25 0-36 23.5T59 503z"/><glyph unicode="." horiz-adv-x="547" d="M125 138q0 94 32.5 126T275 296q83 0 115-31.5T422 144q0-93-32.5-125T273-13 157 18.5 125 138z"/><glyph unicode="/" horiz-adv-x="880" d="M4-266.5Q2-254 8-237l598 1679q4 13 12 21.5t22 13.5 36.5 7.5 54.5 2.5q42 0 67.5-4t38.5-12 15-20.5-3-29.5L252-259q-5-13-13-21t-22.5-13-36-7.5T126-303q-41 0-67 4t-39.5 12T4-266.5z"/><glyph unicode="0" horiz-adv-x="1038" d="M57 642q0 154 25.5 279.5t82 213.5 147 135 220.5 47q133 0 220.5-45.5t138.5-131 71-209T982 652q0-155-25-280t-81.5-213-147-135T507-23q-133 0-220 45.5t-138 131-71.5 209T57 642zm265 13q0-138 11-228.5t34.5-144 60.5-75 89-21.5q39 0 69 12.5t52.5 37.5 37.5 63 24.5 88 13 113 3.5 139q0 92-5 162.5T696.5 924t-26 88-37.5 57.5-50 30.5-62 9q-59 0-97.5-28.5t-61-85.5T331 853t-9-198z"/><glyph unicode="1" horiz-adv-x="1038" d="M148 1011q0 24 1 39.5t5 26.5 11 18 19 15l278 180q5 4 12.5 6.5t19.5 4 31.5 2 50.5.5q38 0 61.5-1.5t35.5-5 16-9.5 4-15V203h211q9 0 16.5-5.5t13-17.5 8-31.5T944 100q0-28-3-47.5t-8.5-31T920 5t-16-5H190q-8 0-15 5t-12.5 16.5-8.5 31-3 47.5q0 29 2.5 48.5t8 31.5 12.5 17.5 16 5.5h241v842L223 930q-23-11-37.5-13.5t-23 6T151 952t-3 59z"/><glyph unicode="2" horiz-adv-x="1038" d="M88 110q0 33 3 56.5t11 42 20.5 36T155 283l224 240q67 70 108 127.5t64 105 31.5 87.5 8.5 76q0 33-10.5 62.5t-31 51.5-51.5 34.5-73 12.5q-59 0-104.5-15t-80-33.5-57.5-34-36-15.5q-9 0-15.5 6t-10.5 20-6.5 37.5-2.5 57.5q0 23 1.5 38.5t4.5 27 8 20 17.5 20.5 46 30.5 82.5 36 108 29.5 123 12q101 0 176.5-25.5t125.5-71 74.5-108T904 978q0-63-12-124t-50-131.5-107-156T552 368L401 213h510q10 0 18.5-6t14.5-18.5 9-33 3-48.5q0-29-2.5-49.5T946 24 933 5.5 915 0H171q-22 0-38 4t-26 15.5T92.5 53 88 110z"/><glyph unicode="3" horiz-adv-x="1038" d="M85 187q0 48 8 66.5t24 18.5q10 0 34.5-13.5t62.5-29 89-29T419 187q55 0 97 13t71.5 36.5 44 57T646 368q0 45-17.5 81t-52 61.5-87 39.5T366 564H254q-13 0-22 3.5T217 582t-8.5 30.5T206 663q0 29 2.5 47.5t8 28.5 14 14 20.5 4h113q58 0 103 13.5t75.5 38.5 46.5 60.5 16 78.5q0 33-11 62.5t-32.5 51-55.5 34-80 12.5q-52 0-98-15.5t-82.5-34-62-34.5-37.5-16q-8 0-14 3.5t-10 13.5-6 29-2 49q0 25 1 41.5t4 27.5 7.5 19 14.5 17.5 41 28.5 78 37 108.5 30.5T502 1317q94 0 166.5-22t122-63.5 75-102T891 993q0-59-15-110t-44-91-72.5-68T659 682v-3q68-8 122-34.5t91.5-66.5 57.5-90.5T950 379q0-97-37-172T810 81 652 3.5 451-23q-66 0-124 9.5T224.5 10 151 39t-38 23-13.5 18-8 23.5-5 34T85 187z"/><glyph unicode="4" horiz-adv-x="1038" d="M36 386q0 32 1.5 55.5t5 42.5 10 36T69 556l402 709q5 9 17 15.5t33.5 11 54.5 6.5 80 2q51 0 87-2.5t57.5-8T832 1276t10-19V478h115q16 0 27.5-24.5T996 372q0-51-10.5-77.5T957 268H842V34q0-10-6-17.5T815 4t-39-7.5T714-6q-36 0-60.5 2.5t-39 7.5-20 12.5T589 34v234H94q-14 0-25 3.5t-18.5 16-11 36T36 386zm210 92h343v595h-2z"/><glyph unicode="5" horiz-adv-x="1038" d="M96 160q0 28 2 47.5t6.5 31.5 10.5 17 14 5q10 0 30.5-11.5t54-25.5 81.5-25.5T410 187q58 0 105.5 12t80.5 38.5 51 66.5 18 96q0 48-15 85.5T603 549t-83 39-124 13q-58 0-105.5-6t-89.5-6q-29 0-41.5 14.5T147 657v562q0 40 15.5 57.5T212 1294h613q9 0 17-6t13.5-19 8-34.5 2.5-51.5q0-60-10.5-87t-30.5-27H365V792q35 4 69.5 5t72.5 1q105 0 186.5-24.5t137-72 84.5-118T944 420q0-105-36.5-187.5t-103-139T644.5 7 437-23q-60 0-114 7.5t-97 19-70.5 23-36 19T107 62t-6.5 21.5T97 115t-1 45z"/><glyph unicode="6" horiz-adv-x="1038" d="M84 596q0 76 7.5 159t29 163 60.5 152.5 100.5 127 149 86.5 207.5 32q38 0 76.5-4.5T786 1300t56-16 30.5-15.5T884 1254t6.5-17.5 3.5-23.5 1-34q0-31-1.5-51.5t-5.5-32-11-16.5-17-5q-12 0-31 6.5t-46 14.5-63.5 14-84.5 6q-81 0-137-30t-91-81.5T356 884t-17-144q22 14 50.5 28t62 24 72.5 16.5 83 6.5q98 0 168-27t114.5-77T955 590t21-158q0-98-30-181.5t-88-144-143-95T519-23q-90 0-157 20.5t-116 59-80 93.5-49.5 124T91 424t-7 172zm260-48q0-107 12-178.5T391.5 256t59-59.5T533 179q46 0 80.5 17t57.5 48 35 72.5 12 90.5q0 51-9 89.5t-29 65-53 40-80 13.5q-28 0-55-5t-53-14-50-21.5-45-26.5z"/><glyph unicode="7" horiz-adv-x="1038" d="M81 1181q0 30 3 51.5t8.5 35.5 13 20 17.5 6h769q18 0 30-3.5t19-15.5 10.5-34 3.5-58q0-29-2-50.5t-5.5-40-9.5-35-14-35.5L498 35q-6-13-15.5-21T456 1.5t-43.5-6T347-6q-53 0-84 3.5t-45.5 11-15.5 19 7 28.5l458 1010H123q-21 0-31.5 27.5T81 1181z"/><glyph unicode="8" horiz-adv-x="1038" d="M61 312q0 55 16.5 103.5t49 90 81 78T319 653q-51 28-92 60.5t-70 71-44 84.5-15 100q0 78 27.5 141.5t82 110T344 1292t190 25q107 0 183.5-23t125.5-65 72.5-100.5T939 999q0-47-15.5-91.5T880 823t-69-75.5-93-64.5q61-32 109-68t81-77.5 50.5-88.5T976 347q0-88-30.5-157t-90-116.5T708 1.5 505-23Q395-23 312-1T173 63.5t-84 105T61 312zm259 19q0-78 50.5-119T521 171q98 0 146.5 42T716 329q0 37-12.5 67.5t-39 57.5-66.5 52-93 51q-46-25-81-50t-58-52.5-34.5-58T320 331zm31 649q0-32 10.5-59t32.5-51 57-47 83-49q73 43 112.5 92T686 975q0 35-10 63t-31.5 47.5-53 29.5-74.5 10q-84 0-125-38.5T351 980z"/><glyph unicode="9" horiz-adv-x="1038" d="M66 872q0 97 29 178.5t86 141 142 92.5 197 33q90 0 157.5-21t116-60 81-94.5 51-123.5 26-147 7.5-165q0-79-8-163.5T920.5 377t-62-154-102-127.5T604.5 9 393-23q-43 0-85.5 6T230-2t-59.5 19T135 37.5 119 68t-5 56q0 33 1.5 53t6 31 11 14.5T148 226q12 0 34-7t53.5-16 71.5-16 89-7q84 0 142 30t94 81 53 118 19 141q-46-29-111-50.5T444 478q-103 0-175 27t-117 78-65.5 124T66 872zm258 19q0-53 9.5-93.5t30-67T417 691t80-13q58 0 109.5 17.5T698 742q0 107-12 179t-36 115-60 61-84 18q-47 0-81-16.5t-56.5-46.5-33.5-71-11-90z"/><glyph unicode=":" horiz-adv-x="565" d="M160 137q0 42 6 71.5t22.5 47.5 43.5 25.5 68 7.5 68-7.5 43.5-25.5 23.5-47.5 7-71.5-7-70.5T411.5 20 368-5.5 300-13t-68 7.5T188.5 20 166 66.5t-6 70.5zm0 653q0 43 6 72t22.5 47 43.5 26 68 8 68-8 43.5-26 23.5-47 7-72q0-42-7-70t-23.5-46-43.5-25.5-68-7.5-68 7.5-43.5 25.5-22.5 46-6 70z"/><glyph unicode=";" horiz-adv-x="565" d="M54.5-265q-.5 8 4.5 19L176 26v158q0 34 8 55t24.5 32 42.5 14.5 61 3.5q34 0 58.5-3.5T411 271t23.5-32 7.5-55q0-40-4-72.5T425.5 50 403-6.5 369-63L239-251q-7-10-15.5-17T203-279.5t-28.5-6.5-41.5-2q-28 0-45 2t-25 7.5-8.5 13.5zM160 790q0 43 6 72t22.5 47 43.5 26 68 8 68-8 43.5-26 23.5-47 7-72q0-42-7-70t-23.5-46-43.5-25.5-68-7.5-68 7.5-43.5 25.5-22.5 46-6 70z"/><glyph unicode="<" d="M68 578q0 26 2 45.5t5 32 8.5 20T96 687l766 380q29 14 41-5.5t12-79.5q0-41-1.5-65t-5.5-38-11-20-19-12L302 577l565-262q15-7 24.5-14t14.5-21.5 7-39 2-66.5q0-37-3-58t-9.5-30-16-8-24.5 8L95 468q-14 8-20.5 33.5T68 578z"/><glyph unicode="=" d="M83 375q0 51 10.5 73.5T127 471h763q23 0 33.5-22.5T934 375q0-54-11.5-75T890 279H127q-21 0-32.5 21T83 375zm0 404q0 51 10.5 73t33.5 22h763q23 0 33.5-22t10.5-73q0-53-11.5-75T890 682H127q-21 0-32.5 22T83 779z"/><glyph unicode=">" d="M102 171q0 41 1.5 65t5.5 38 11 20.5 19 11.5l576 270-565 262q-16 7-25.5 14T110 873.5t-6.5 39T102 979q0 37 2.5 58t9 30 16.5 8 24-8l768-383q13-6 20.5-32t7.5-77q0-26-2-45t-5.5-32-9-20.5T921 467L154 87q-14-7-24-6t-16.5 11-9 29.5T102 171z"/><glyph unicode="?" horiz-adv-x="949" d="M115 1231q0 35 3 51t13 26 38 23.5 67 25 87 19.5 100 8q118 0 202-32.5t137.5-87.5 78.5-126 25-150q0-82-23.5-148t-66-114-102-77T543 612l-8-195q-1-18-28.5-27t-79.5-9q-33 0-55.5 1.5T336 388t-19 11-7 18l-9 236q-1 32 3 52t14.5 32 26.5 16.5 38 4.5h14q53 0 91.5 17t63.5 45 36.5 66 11.5 81q0 48-13.5 88t-41 69-69 44.5T379 1184q-51 0-90-10t-67-22-46.5-22-28.5-10q-7 0-13 4.5t-10 16.5-6.5 34-2.5 56zM287 131q0 42 6.5 70.5t23 46 43.5 25 69 7.5q40 0 67.5-7.5t44-25 23-46T570 131q0-41-6.5-69t-23-45-44-24.5T429-15q-42 0-69 7.5T316.5 17t-23 45-6.5 69z"/><glyph unicode="@" horiz-adv-x="1840" d="M0 1294zm120-915q0 82 11.5 167T167 714t62.5 161.5T321 1024t122.5 128.5 156 100.5 191 65 229.5 23q183 0 313.5-41t214.5-116 123.5-180.5T1711 769q0-73-10-147.5t-32.5-143T1611 350t-84.5-104-114.5-69.5-147-25.5q-49 0-89 9.5t-70 28-49.5 46T1027 298q-39-40-76.5-67.5t-74-45.5-72.5-26-73-8q-47 0-83 11.5T585.5 194t-44 46.5T513 299t-15.5 67-4.5 71q0 47 7.5 105t25 118.5 46.5 117 72 101T744.5 950 877 977q34 0 63-7t56-22 52.5-39 53.5-59l17 77q4 18 24.5 27t72.5 9q26 0 43.5-2.5t27.5-7 13-11 2-15.5l-86-447q-14-74 4.5-108.5T1293 337q35 0 64 19t50.5 51.5 36.5 75 24.5 89 14 94 4.5 91.5q0 80-22 151.5t-77.5 126-150 86T997 1152q-98 0-178.5-19.5t-144.5-54T560 997t-87-102.5-62.5-118T370 650t-22-128-7-124q0-109 24-195t83-146 157.5-91.5T852-66q77 0 140.5 9t111 19 77.5 19 41 9q7 0 12-3.5t8-13.5 4.5-27 1.5-43q0-22-1-37t-3.5-25.5-6.5-18-10-13-37.5-16.5-84-21.5-123-18.5-154.5-8q-190 0-324 43.5t-219.5 126-125 200T120 379zm595 88q0-60 22-95t74-35q19 0 39.5 6.5t43 21 48 38T998 459l41 221q-30 55-62.5 83T903 791q-35 0-62.5-16.5t-48.5-44-35.5-62-24-70.5-13.5-70.5-4-60.5z"/><glyph unicode="A" horiz-adv-x="1241" d="M26 44q3 21 15 56l399 1148q6 17 14 27.5t25.5 16 48.5 7 82 1.5q59 0 94-1.5t54.5-7 28-16.5 14.5-30L1201 98q12-36 15-57 1-4 1-9 0-14-9-22-11-10-39-13t-77-3q-51 0-79.5 1.5t-43.5 6T948 14t-10 21l-87 260H365L283 42q-4-14-10.5-23.5t-21-15-41-7.5T141-6Q95-6 69-3T33 12q-8 9-8 23 0 4 1 9zm397 453h367l-183 550h-1z"/><glyph unicode="B" horiz-adv-x="1148" d="M141 83v1128q0 44 22.5 63.5T219 1294h325q119 0 201.5-20t139-60.5T971 1111t30-146q0-47-12-88.5T954 801t-56.5-60-76.5-42q55-10 101.5-35t81-64.5T1058 507t20-119q0-69-19-125t-52.5-99-80-74T824 39 704.5 9.5 563 0H219q-33 0-55.5 19.5T141 83zm258 118h190q55 0 92.5 11.5t65 34 43 56T805 379q0 45-15 80.5T746 519t-74 37-117 13H399V201zm0 560h147q57 0 91 13.5t56.5 37 33.5 55 11 66.5q0 39-12 70t-36 51.5-60.5 31.5-97.5 11H399V761z"/><glyph unicode="C" horiz-adv-x="1084" d="M79 630q0 165 44 293t123 215 189.5 132 243.5 45q54 0 104-9t92.5-23.5T952 1249t47.5-32.5 18.5-22.5 8-23 4.5-33 1.5-47q0-30-2-51t-7-34-12-19-16-6q-15 0-38 17.5t-59.5 39-87 39T690 1094q-77 0-137.5-31.5t-103-90T385 831t-22-187q0-114 23.5-197.5t67-137.5 105-80.5T697 202q70 0 121 16.5t87.5 36.5 60 36 36.5 16q10 0 16-4t10-16 6-33.5 2-57.5q0-25-1.5-42.5t-4.5-30-8-21.5-16-20.5T963.5 52t-77-34.5-104-27.5T656-21q-133 0-240 41T234 142.5 119 346 79 630z"/><glyph unicode="D" horiz-adv-x="1291" d="M141 83v1128q0 44 22.5 63.5T219 1294h332q173 0 293.5-40.5t203-120T1173 937t43-271q0-178-46.5-304.5T1036 155 824.5 37.5 528 0H219q-33 0-55.5 19.5T141 83zm262 125h137q108 0 182 28t123.5 84.5 74 140.5T944 657q0 92-21.5 171t-69 137-122 90.5T536 1088H403V208z"/><glyph unicode="E" horiz-adv-x="999" d="M141 83v1128q0 44 22.5 63.5T219 1294h646q9 0 16-5t12-17.5 7.5-32 2.5-49.5q0-28-2.5-47.5T893 1111t-12-17.5-16-5.5H403V772h391q9 0 16.5-5.5t12.5-17 7.5-31T833 671q0-29-2.5-48t-7.5-30.5-12.5-16.5-16.5-5H403V206h466q9 0 16.5-5.5T898 183t7.5-31.5T908 103t-2.5-48.5T898 23 885.5 5.5 869 0H219q-33 0-55.5 19.5T141 83z"/><glyph unicode="F" horiz-adv-x="940" d="M141 38v1173q0 44 22.5 63.5T219 1294h609q9 0 16-5.5t12.5-18 8-33.5 2.5-51-2.5-50.5-8-32.5-12.5-18-16-6H405V731h397q9 0 16-5t12.5-17 8-32 2.5-50-2.5-50-8-33-12.5-18.5-16-5.5H405V38q0-11-6-19T377.5 5.5 337-3t-64-3q-38 0-63.5 3T169 5.5 147.5 19 141 38z"/><glyph unicode="G" horiz-adv-x="1305" d="M73 633q0 159 48 285.5t136 215T469.5 1269t277.5 47q84 0 153-11.5t120.5-28 85.5-35.5 47.5-33 19.5-39.5 6-75.5q0-29-2.5-50t-7-33.5-11-17.5-15.5-5q-13 0-42 18t-77 39-114.5 39-154.5 18q-94 0-170-32.5t-130-92-83-143T343 649q0-111 29.5-195.5T455 312t127.5-86T747 197q44 0 87 10t80 30v300H669q-18 0-28 22.5T631 636q0 28 2.5 47t7.5 30.5 12 17 16 5.5h437q16 0 28.5-5.5t22-16.5 14.5-26.5 5-35.5V137q0-30-10.5-52.5t-43-35.5-80.5-27-99.5-24-104-15T733-22q-155 0-277.5 44.5T248 151.5t-130 206T73 633z"/><glyph unicode="H" horiz-adv-x="1292" d="M141 36v1222q0 10 6.5 18t21.5 13 40.5 8 63.5 3q39 0 64-3t40-8 21-13 6-18V783h484v475q0 10 6.5 18t21 13 40 8 64.5 3q38 0 63-3t40-8 21.5-13 6.5-18V36q0-10-6.5-18T1123 5t-40-8-63-3q-39 0-64.5 3t-40 8-21 13-6.5 18v523H404V36q0-10-6-18T377 5t-40-8-64-3q-38 0-63.5 3T169 5t-21.5 13-6.5 18z"/><glyph unicode="I" horiz-adv-x="546" d="M141 36v1222q0 10 6.5 18t22 13 40.5 8 63 3q39 0 64-3t40-8 21.5-13 6.5-18V36q0-10-6.5-18T377 5t-40-8-64-3q-38 0-63.5 3T169 5t-21.5 13-6.5 18z"/><glyph unicode="J" horiz-adv-x="678" d="M3 129q0 34 1.5 57.5t5 37 10 19T36 248q9 0 21-6.5T84 228t35-13.5 47-6.5 47.5 7.5 34 26T268 291t7 80v889q0 10 6.5 17.5t21 12.5 40.5 7.5 64 2.5 63-2.5 40.5-7.5 22-12.5 6.5-17.5V360q0-88-16.5-158.5t-56-120T363 6 205-20q-30 0-59.5 4.5T91.5-4 49 11 25 25.5 15 39 8 57.5 4 86t-1 43z"/><glyph unicode="K" horiz-adv-x="1120" d="M141 38v1219q0 11 6.5 19t21.5 13 40.5 8 63.5 3q39 0 64-3t40-8 21-13 6-19V706l379 550q7 13 17 21.5t26 13.5 41 7 64 2q40 0 66-3t41.5-8.5 21.5-13.5 6-18q0-17-9-35t-34-57L668 700l387-585q22-41 26.5-54.5T1086 39q0-11-5.5-19.5t-21-14T1017-3t-68-3q-65 0-93.5 5t-41 15T795 38L404 652V38q0-11-6-19T377 5.5 337-3t-64-3q-38 0-63.5 3T169 5.5 147.5 19 141 38z"/><glyph unicode="L" horiz-adv-x="866" d="M141 83v1175q0 10 6.5 18t21.5 13 40.5 8 63.5 3q39 0 64-3t40-8 21.5-13 6.5-18V217h407q10 0 17.5-5.5t12.5-18 7.5-33T852 110t-2.5-50.5-7.5-34T829.5 6 812 0H219q-33 0-55.5 19.5T141 83z"/><glyph unicode="M" horiz-adv-x="1790" d="M141 36v1153q0 51 27 78t72 27h172q46 0 79-7.5t57-25 40-46 28-70.5l280-771h4l290 769q13 42 28.5 71t36 47 48.5 25.5 65 7.5h177q27 0 46.5-7t32-20.5 19-33 6.5-44.5V36q0-10-5.5-18t-20-13-38.5-8-61-3q-36 0-60 3t-38 8-20 13-6 18v1053h-2L1023 37q-4-13-13-21.5T985.5 2 946-4.5 888-6t-58 2.5-39.5 8T766 18t-12 19L392 1089h-2V36q0-10-5.5-18T364 5t-38.5-8T265-6q-36 0-60 3t-38.5 8-20 13-5.5 18z"/><glyph unicode="N" horiz-adv-x="1349" d="M141 37v1163q0 47 27.5 70.5T236 1294h141q38 0 64-6.5t46.5-21.5 38.5-41.5 37-65.5l252-473q22-43 43.5-84.5t41.5-83 39-81.5 37-80h1q-3 70-4.5 146T971 648v607q0 10 6 18t20 14 37 8.5 59 2.5q34 0 57-2.5t35.5-8.5 17.5-14 5-18V92q0-23-8-41t-21.5-30-32-17.5T1109-2H997q-35 0-60.5 7t-47 25.5-41.5 50-45 81.5L481 767q-28 54-57 116.5T372 1005h-2q4-72 6-143.5t2-147.5V37q0-10-5.5-18t-19-13.5T317-3t-59-3q-35 0-58 3t-36 8.5T146 19t-5 18z"/><glyph unicode="O" horiz-adv-x="1385" d="M80 639q0 157 40 282.5T239 1135t195.5 135 270.5 47q147 0 259.5-39t188-120 114-204.5T1305 662q0-161-40-288t-119-215.5-195.5-135T681-23q-151 0-263.5 39.5T230 137 117.5 343 80 639zm276 13q0-106 16-190.5T426 317t102-91.5T689 194t162 36 105 98 56.5 144.5T1029 648q0 102-16 185.5t-54.5 143-102.5 92-160 32.5q-97 0-162-36.5T429 967t-56.5-142.5T356 652z"/><glyph unicode="P" horiz-adv-x="1090" d="M141 36v1164q0 47 24.5 70.5T230 1294h305q46 0 87.5-3.5t99.5-15 117.5-42.5 101.5-78.5 64-111 22-142.5q0-109-34-193t-99-141.5T734.5 479 512 449H404V36q0-10-6.5-18T376 5t-40-8-64-3q-38 0-63.5 3T168 5t-21 13-6 18zm263 616h118q63 0 105.5 17t69.5 47.5 41 73 14 92.5q0 68-24 112t-59 65-73.5 26.5-79.5 5.5H404V652z"/><glyph unicode="Q" horiz-adv-x="1405" d="M80 640q0 157 40 282.5t119 213T434.5 1270t270.5 47q145 0 256.5-39t188-119.5 116-203.5 39.5-291q0-87-11.5-163.5T1260 359t-54-119-73-95q62-54 110-82t80.5-42 52-20.5 30.5-17 16-36 5-70.5q0-36-3.5-58t-9.5-34-13-15.5-15-3.5q-33 0-86.5 18T1184-164.5t-126.5 82T938 29Q892 8 826.5-7.5T681-23q-151 0-263.5 38.5T230 135 117.5 341.5 80 640zm276 14q0-107 16-192t54-145 102-91.5T689 194t162 36 105 98 56.5 145 16.5 177q0 101-16 184t-54.5 142.5-102.5 92-160 32.5q-97 0-162-36t-105-97-56.5-142.5T356 654z"/><glyph unicode="R" horiz-adv-x="1153" d="M141 36v1175q0 44 22.5 63.5T219 1294h335q51 0 84-2t60-5q78-11 140.5-38t106-70.5 66.5-103 23-136.5q0-65-16.5-118.5T969 725t-79-73-107-50q29-14 54.5-34t48-48.5 42.5-65 39-82.5l109-255q15-38 20-55.5t5-27.5q0-11-4-18.5T1078 3t-44-7-79-2q-42 0-67 2t-39.5 7.5-20.5 14T818 38L702 327q-21 49-41 87t-44.5 63.5T560 516t-74 13h-82V36q0-10-6.5-18T376 5t-40-8-64-3q-38 0-63.5 3T168 5t-21 13-6 18zm263 690h134q56 0 98 13.5t70 38 42 58.5 14 76q0 64-29 108t-95 62q-20 5-45.5 8t-70.5 3H404V726z"/><glyph unicode="S" horiz-adv-x="968" d="M63 185q0 31 2 52t6.5 34 12 18.5T101 295q14 0 39.5-16.5T206 242t95.5-36.5T430 189q48 0 86 11.5t64.5 32.5 40.5 52 14 69q0 44-24 75.5t-62.5 56-87.5 46T360 577t-101 54.5-87.5 73T109 805 85 944q0 93 34.5 163.5t93 117 138 69.5 168.5 23q46 0 92-7t86-19 71-27 41-25 13.5-17 6-18.5 3.5-29 1-43.5q0-29-1.5-49t-5-33-10-19-17.5-6-35 14-59 30.5-81 30-101 13.5q-43 0-75-10.5t-53.5-29-32-44.5-10.5-55q0-43 23.5-74.5t63-56 89.5-46T630 751t102-54.5 89-73 63-100T908 388q0-102-38-179T767 80.5 615 3 429-23q-67 0-124.5 11T203 14.5 129.5 47 87 77t-18.5 37.5T63 185z"/><glyph unicode="T" horiz-adv-x="1014" d="M12 1186q0 30 2.5 51t7.5 33.5 12 18 17 5.5h912q9 0 16.5-5.5t12.5-18 7.5-33.5 2.5-51q0-29-2.5-49.5t-7.5-33-12.5-18.5-16.5-6H639V36q0-10-6.5-18T611 5t-40.5-8T507-6t-63.5 3T403 5t-21.5 13-6.5 18v1043H51q-10 0-17 6t-12 18.5-7.5 33T12 1186z"/><glyph unicode="U" horiz-adv-x="1337" d="M140 471v787q0 10 6 18t21.5 13 40.5 8 64 3q38 0 63-3t40-8 21.5-13 6.5-18V494q0-77 19-133.5t54.5-93.5 85-55.5T672 193q62 0 111 19t83 55.5 52.5 90T937 479v779q0 10 6 18t21 13 40.5 8 63.5 3 62.5-3 39.5-8 21-13 6-18V482q0-119-35-213t-103-159-168-99-230-34Q539-23 442 7.5T278 100 175.5 254.5 140 471z"/><glyph unicode="V" horiz-adv-x="1211" d="M24 1253v7q0 16 10 24 12 10 42.5 13t84.5 3q46 0 72-2t40-7 19.5-15 10.5-25l315-998h1l309 993q4 17 10 27.5t20.5 16.5 41.5 8 74 2q46 0 72-3 24-3 34-15 7-8 7-21-1-5-1-11-4-21-15-56L785 46q-5-17-13-27.5t-26-16-49-7T616-6q-40 0-68.5.5T499-3t-32.5 6-21 10-13 14.5T424 49L39 1196q-13 36-15 57z"/><glyph unicode="W" horiz-adv-x="1856" d="M44 1255q0 18 12 29t40.5 13.5 79.5 2.5q47 0 74.5-1.5t41.5-7 19-16 8-29.5l227-991h1l236 984q4 19 10.5 31t22 18.5 42.5 9 72 2.5q48 0 76.5-2t44-8.5 22.5-18.5 11-32l244-984h2l227 988q3 16 8 27.5t19 18 40 9 73 2.5q44 0 68.5-2.5t35.5-13.5q10-10 10-27-1-1-1-5-2-22-10-59L1503 67q-6-24-16.5-38.5t-31.5-22-54-10-84-2.5q-57 0-91.5 2.5t-54.5 10-29 22-14 38.5L921 887h-2L723 67q-5-23-14-37.5T680.5 7t-53-10.5T539-6q-58 0-92.5 2.5T392 6.5t-29 22T348 67L54 1196q-10 40-10 59z"/><glyph unicode="X" horiz-adv-x="1128" d="M39 43q6 21 25 56l310 565-288 531q-18 36-24.5 57.5t5 32 42.5 13 88 2.5q47 0 74.5-2t43.5-6.5 22.5-12.5 12.5-20l227-428 221 428q6 12 12.5 20t21 12.5 40 6.5 70.5 2q50 0 79-2.5t40-13.5 5.5-32-22.5-57L756 667l307-568q17-35 23-56 2-7 2-12 0-12-8-20-12-11-43.5-14T949-6q-47 0-74 2t-42.5 6.5T810 15t-12 20L555 502 313 35q-6-12-13-20T277.5 2.5t-43-6.5T162-6q-52 0-80.5 3T43 11q-6 7-6 18 0 6 2 14z"/><glyph unicode="Y" horiz-adv-x="1064" d="M22 1254q-2 6-2 12 0 11 8 18 11 11 42 13.5t86 2.5q46 0 73.5-2t43.5-7.5 23.5-14.5 14.5-23l144-318q21-46 41.5-97T538 731h2q19 54 39 105t39 97l142 316q5 16 12.5 25.5T795 1290t41 8 69 2q57 0 88.5-2.5t42.5-13.5q8-6 8-18 0-6-2-13-6-21-24-57L664 491V36q0-10-6.5-18T636 5t-40.5-8T532-6q-39 0-64 3t-40.5 8T406 18t-6 18v455L46 1196q-19 37-24 58z"/><glyph unicode="Z" horiz-adv-x="979" d="M51 90v44q0 20 2.5 36.5T62 204t17.5 37 28.5 48l502 796H112q-12 0-20.5 5.5t-14 17.5-8 32-2.5 48q0 30 2.5 50.5t8 33 14 17.5 20.5 5h715q41 0 60.5-21t19.5-59v-49q0-27-2.5-46.5t-9-38-17.5-38-28-46.5L356 211h541q19 0 29-24t10-83q0-29-2.5-49T926 22.5 913.5 5 897 0H134Q94 0 72.5 23T51 90z"/><glyph unicode="[" horiz-adv-x="665" d="M157-254v1586q0 21 6 37t16 26.5 24 15 31 4.5h309q8 0 15-4.5t11.5-15 6.5-27.5 2-43q0-51-9-70.5t-26-19.5H392V-158h151q8 0 15-4t11.5-15 6.5-28 2-43q0-50-9-70t-26-20H234q-17 0-31 5t-24 15-16 26-6 38z"/><glyph unicode="\" horiz-adv-x="880" d="M29 1437q-1 15 10.5 22t36.5 9.5 69 2.5q40 0 64.5-2t38.5-6 20-11.5 10-18.5L866-218q8-25 9-40.5T864.5-281t-36.5-9.5-69-2.5q-40 0-64.5 2t-38.5 6-20 11.5-11 18.5L39 1396q-9 26-10 41z"/><glyph unicode="]" horiz-adv-x="665" d="M87-248q0 26 2.5 43t7 28 11 15 14.5 4h152v1393H122q-17 0-26 19.5t-9 70.5q0 26 2.5 43t7 27.5 11 15 14.5 4.5h310q17 0 31-4.5t24-15 16.5-26.5 6.5-37V-254q0-22-6.5-38T487-318t-24-15-31-5H122q-17 0-26 20t-9 70z"/><glyph unicode="^" d="M33 551q3 17 16 45l288 656q6 13 18 22.5t32.5 16 49.5 10 69 3.5 69.5-3.5 49.5-10 32-16 18-22.5l293-656q13-28 16-45t-7.5-26-36-11.5T871 511q-39 0-64.5 2.5t-42 8-25 14T726 556l-221 541-5-1-212-540q-5-12-13.5-20.5t-24.5-14-41.5-8T144 511q-44 0-68.5 2.5t-35 11.5-7.5 26z"/><glyph unicode="_" d="M-7-273q0 50 9.5 72T35-179h950q22 0 31.5-21t9.5-72q0-50-9.5-71.5T985-365H35q-23 0-32.5 21T-7-273z"/><glyph unicode="`" horiz-adv-x="615" d="M0 960zm102 411q-1 10 10.5 17.5T151 1400t73 4q33 0 55.5-2t37.5-6.5 24.5-12.5 17.5-19l143-229q9-13 11-23t-6.5-16.5-28-9.5-54.5-3q-29 0-48 2t-32 6-21.5 10.5T306 1118l-193 232q-10 11-11 21z"/><glyph unicode="a" horiz-adv-x="1011" d="M71 267q0 78 30.5 135.5t91 95T343 553t209 18h87v54q0 42-8.5 73.5t-28 52.5-52 31-80.5 10q-63 0-112.5-14T270 747t-63.5-31-41.5-14q-11 0-19.5 7t-14 20-8.5 32-3 42q0 31 5 49t19 32.5 49 32 82 32.5 102.5 24.5T492 983q105 0 179.5-20.5t122.5-63T864 790t22-159V31q0-14-10-22T844.5-2.5 781-6q-45 0-65.5 3.5T686.5 9 678 31v71q-55-59-125.5-92T396-23q-71 0-130.5 18.5t-103 55T95 141 71 267zm246 8q0-56 35.5-88t98.5-32q53 0 97.5 27t90.5 79v152h-96q-61 0-104-9t-70-27-39.5-43.5T317 275z"/><glyph unicode="b" horiz-adv-x="1099" d="M126 34v1315q0 10 6 18t20.5 13.5 38.5 8.5 61 3 61-3 38.5-8.5T372 1367t6-18V856q34 34 68 58t68 39.5 70 22.5 76 7q99 0 168-39.5T940.5 837t63.5-156.5 20-188.5q0-119-26-214t-75-162T802.5 13 640-23q-45 0-84 8.5T481.5 13t-70 48-70.5 70V34q0-11-5.5-18.5T317.5 3 284-4t-51-2q-31 0-51.5 2t-33 7T131 15.5 126 34zm252 296q53-68 101.5-103.5T581 191q49 0 83 25t56.5 65 32.5 91 10 102q0 57-8.5 110T725 678t-54.5 65.5T586 768q-25 0-49-7t-49.5-24-52.5-44-57-67V330z"/><glyph unicode="c" horiz-adv-x="857" d="M72 463q0 134 33.5 231.5T199 856t142 95 180 31q40 0 78.5-7t72-19 60-27 37.5-26 15.5-18.5 7-19.5 4-29.5T797 793q0-58-10-81.5T761 688q-17 0-36 14t-45 31-62 31-86 14q-98 0-150-75.5T330 481q0-72 13-127t38.5-92 64-55.5T535 188q52 0 89.5 15.5T690 238t47 34.5 32 15.5q9 0 15-5t9.5-18.5T799 230t2-54q0-26-1.5-43.5t-4-29.5-6-19.5-15.5-19-41-28T667 7t-80.5-21-89.5-8q-103 0-182.5 32T181 104.5 99.5 257 72 463z"/><glyph unicode="d" horiz-adv-x="1099" d="M75 468q0 119 25.5 214T175 844t122 103 168 36q75 0 136-30.5T722 863v483q0 10 5.5 18t20 13.5 38.5 8.5 61 3 61-3 38-8.5 20-13.5 6-18V34q0-11-5-18.5T950 3t-32.5-7T867-6q-32 0-52 2t-32.5 7-18 12.5T759 34v99Q690 59 614.5 18T447-23q-102 0-172.5 39.5T159.5 123 95 279.5 75 468zm256 17q0-56 9-109t29.5-94.5T424 215t86-25q26 0 50.5 7.5t50 24.5 52.5 44.5 59 67.5v296q-54 68-103.5 104T515 770q-49 0-84.5-24.5t-57-65.5-32-91.5T331 485z"/><glyph unicode="e" horiz-adv-x="1031" d="M74 470q0 119 31 214.5t90 162T338.5 948 529 983q112 0 191.5-33T851 858.5 926 720t24-174v-40q0-46-20.5-68T873 416H330q0-57 13.5-103.5t43-79 76-49.5T574 167q66 0 116 9.5t86.5 21 60.5 21 39 9.5q9 0 15-3.5t10-12.5 5.5-25.5T908 145q0-22-1-37.5T904 81t-6-18.5T887.5 48 852 29 778 5.5t-103-20T551-23Q432-23 342.5 7T193 98t-89.5 154T74 470zm256 108h376v13q0 97-42 153-46 60-141 61-48 0-83.5-18t-59-48.5-36-72T330 578z"/><glyph unicode="f" horiz-adv-x="648" d="M25 858q0 29 2.5 49t7 31.5 12 16.5 17.5 5h111v75q0 91 18 159.5t56.5 114 98 68.5 140.5 23q39 0 74-6.5t55-14 27-14 11.5-19 6.5-32 2-48.5-2-46.5-6-27-9-13-11-3.5q-7 0-15.5 3.5t-21 7.5-29.5 7.5-40 3.5q-27 0-46.5-8.5t-32.5-27-19-48-6-72.5v-82h163q9 0 16.5-5t12.5-16.5 7.5-31.5 2.5-49q0-55-10-78.5T589 756H426V34q0-10-6-17.5T400 4t-39-7.5T300-6t-60.5 2.5-39 7.5-20 12.5T175 34v722H63q-19 0-28.5 23.5T25 858z"/><glyph unicode="g" horiz-adv-x="971" d="M27-123q0 33 8.5 63t25 57.5T101 50t55 48q-43 23-66.5 62.5T66 247q0 59 27 107.5t70 87.5q-35 35-56 84T86 648q0 78 27.5 139.5t76.5 104 117 65T457 979q42 0 80.5-5t71.5-14h283q17 0 27.5-22t10.5-74q0-48-11-71t-27-23H787q22-24 31.5-54.5T828 652q0-78-26-138.5t-74.5-102-117-63T458 327q-43 0-82 10.5T316 362q-12-13-21.5-31t-9.5-40q0-29 25.5-47.5T382 223l217-8q76-3 135.5-21.5t100-52 62-80.5T918-46q0-66-29-124.5T802-272t-145.5-68T452-365q-114 0-194.5 18t-132 50-75 76.5T27-123zm243 32q0-50 50.5-76T463-193q57 0 96 11.5t63 30.5 34 42.5T666-59q0 45-36 69t-99 26l-179 5q-26-19-41.5-36.5t-25-33.5T273-60t-3-31zm36 740q0-68 40-107.5T457 502q38 0 66 12t46.5 33 28 48.5T607 653q0 72-40 112t-113 40q-37 0-65-12.5t-46.5-34-27.5-50-9-59.5z"/><glyph unicode="h" horiz-adv-x="1099" d="M126 34v1315q0 10 6 18t20.5 13.5 38.5 8.5 61 3 61-3 38.5-8.5T372 1367t6-18V856q65 64 132.5 95.5T651 983q91 0 153.5-30t101-82T961 749.5 978 581V34q0-10-6-17.5T952 4t-38.5-7.5T853-6q-37 0-61.5 2.5T753 4t-20 12.5-6 17.5v509q0 65-9.5 102T690 708.5t-46.5 41T577 764q-48 0-97-35T378 627V34q0-10-6-17.5T351.5 4 313-3.5 252-6t-61 2.5T152.5 4 132 16.5 126 34z"/><glyph unicode="i" horiz-adv-x="503" d="M107 1223q0 76 30.5 105.5T253 1358q84 0 114-28.5t30-101.5q0-76-31-105t-115-29q-85 0-114.5 28T107 1223zM126 34v890q0 10 6 17.5t20.5 13T191 963t61 3 61-3 38.5-8.5 20.5-13 6-17.5V34q0-10-6-17.5T351.5 4 313-3.5 252-6t-61 2.5T152.5 4 132 16.5 126 34z"/><glyph unicode="j" horiz-adv-x="523" d="M-37-249q0 28 1.5 46.5T-30-173t9 16 13 5q5 0 20.5-2.5T46-157q26 0 45 8t31 25.5 18 45T146 9v915q0 10 6 17.5t20 13 38 8.5 61 3 61-3 38.5-8.5 20.5-13 6-17.5V4q0-105-18-170t-54.5-109.5-91.5-67T104-365q-41 0-70 5.5T-8-348t-18 15-7 20.5-3 26-1 37.5zm163 1472q0 76 31 105.5t115 29.5q85 0 114.5-28.5T416 1228q0-76-30.5-105T270 1094q-84 0-114 28t-30 101z"/><glyph unicode="k" horiz-adv-x="983" d="M126 34v1315q0 10 6 18t20.5 13.5 38.5 8.5 61 3 61-3 38.5-8.5T372 1367t6-18V566l264 355q8 12 18 21t26.5 14 41 7.5T790 966q37 0 62.5-2.5t41-7.5 21.5-12.5 6-18.5q0-15-7.5-32T891 857L630 561 932 94q12-20 17.5-34.5T955 33q0-10-5.5-17.5t-20-12-39.5-7T825-6q-41 0-66.5 2t-42 6.5T691 15t-16 21L378 506V34q0-10-6-17.5T351.5 4 313-3.5 252-6t-61 2.5T152.5 4 132 16.5 126 34z"/><glyph unicode="l" horiz-adv-x="503" d="M126 34v1315q0 10 6 18t20.5 13.5 38.5 8.5 61 3 61-3 38.5-8.5T372 1367t6-18V34q0-10-6-17.5T351.5 4 313-3.5 252-6t-61 2.5T152.5 4 132 16.5 126 34z"/><glyph unicode="m" horiz-adv-x="1666" d="M126 34v892q0 10 5 17.5t18 12.5 33.5 7.5T234 966q32 0 53-2.5t32.5-7.5 16.5-12.5 5-17.5V823q74 80 147.5 120T642 983q55 0 99-11.5t78.5-33T879 887t42-67q40 43 78.5 74t76 50.5 75 29 76.5 9.5q89 0 150-30t98.5-81.5T1529 751t16-146V34q0-10-6-17.5T1519 4t-38-7.5-61-2.5q-38 0-62 2.5T1319.5 4t-20 12.5T1294 34v529q0 45-8.5 82t-26 63.5-44 41T1152 764q-45 0-91-35T961 627V34q0-10-6-17.5T934.5 4 896-3.5 836-6q-37 0-61 2.5T736.5 4 716 16.5 710 34v529q0 45-8.5 82T676 708.5t-44 41-63 14.5q-46 0-92-35t-99-102V34q0-10-6-17.5T351.5 4 313-3.5 252-6t-61 2.5T152.5 4 132 16.5 126 34z"/><glyph unicode="n" horiz-adv-x="1099" d="M126 34v892q0 10 5 17.5t18 12.5 33.5 7.5T234 966q32 0 53-2.5t32.5-7.5 16.5-12.5 5-17.5V823q74 80 150.5 120T651 983q91 0 153.5-30t101-81.5T961 751t17-166V34q0-10-6-17.5T952 4t-38.5-7.5T853-6q-37 0-61.5 2.5T753 4t-20 12.5-6 17.5v509q0 65-9.5 102T690 708.5t-46.5 41T577 764q-48 0-97-35T378 627V34q0-10-6-17.5T351.5 4 313-3.5 252-6t-61 2.5T152.5 4 132 16.5 126 34z"/><glyph unicode="o" horiz-adv-x="1101" d="M72 471q0 114 30.5 208.5t91.5 162T346.5 946 561 983q120 0 208-32.5T914.5 855t85.5-155 28-211q0-114-30-208t-91-162T754 14 539-23q-119 0-207 33t-146 96-86 155-28 210zm259 11q0-66 11-121.5t35.5-96.5 66.5-63.5T548 178q57 0 99 20.5t69 59.5 40 94.5T769 479q0 66-10.5 121.5T723 697t-66.5 64T552 784q-56 0-98-20.5t-69-60-40.5-95T331 482z"/><glyph unicode="p" horiz-adv-x="1099" d="M126-320V926q0 10 5 17.5t17.5 12.5 33 7.5T233 966q30 0 50.5-2.5t33-7.5 17.5-12.5 5-17.5V821q39 40 76.5 70.5t76.5 51 80.5 30.5 88.5 10q98 0 167-38.5T940.5 839t63.5-156 20-190q0-119-25.5-214.5T924 116 802 13 635-23q-39 0-71.5 7.5t-63 23T440 46t-62 54v-420q0-10-6-18t-20.5-13.5T313-360t-61-3-61 3-38.5 8.5T132-338t-6 18zm252 651q53-67 101-103.5T579 191q49 0 83.5 25t56.5 65.5 32.5 91.5T762 475q0 57-8.5 109.5t-29 93.5-54 65.5T587 768q-25 0-49.5-7.5t-50-24.5-52.5-44-57-67V331z"/><glyph unicode="q" horiz-adv-x="1099" d="M75 468q0 119 26 214t76 162 123 103 169 36q37 0 71-7.5t68-26 70.5-48T759 829v97q0 10 5.5 17.5t18 12.5 32.5 7.5 52 2.5q30 0 50.5-2.5T950 956t17-12.5 5-17.5V-320q0-10-6-18t-20-13.5-38-8.5-61-3-61 3-38.5 8.5-20 13.5-5.5 18v424q-36-33-70-57.5t-68-40T514-16t-76-7q-98 0-167 39.5T158.5 123 95 279.5 75 468zm256 17q0-56 9-109.5t29.5-94.5 54.5-66 86-25q26 0 50.5 7.5t50 24.5 52.5 44.5 59 67.5v296q-54 68-103.5 104T515 770q-49 0-84.5-24.5t-57-65.5-32-91.5T331 485z"/><glyph unicode="r" horiz-adv-x="728" d="M126 34v892q0 10 5 17.5t18 12.5 33.5 7.5T234 966q32 0 53-2.5t32.5-7.5 16.5-12.5 5-17.5V815q35 50 66 82.5t59 51.5 56 26.5 56 7.5q13 0 28-1.5t31-5 28-8 17.5-9.5 8-11 4.5-16.5 3-31.5 1-57-2-59-6-36-10.5-18-16.5-5q-8 0-18 3.5t-22.5 7.5-27.5 7.5-33 3.5q-21 0-42-8.5T477.5 712t-47-48-52.5-74V34q0-10-6-17.5T351.5 4 313-3.5 252-6t-61 2.5T152.5 4 132 16.5 126 34z"/><glyph unicode="s" horiz-adv-x="817" d="M73 149q0 29 2 46.5t6 28 10 14 15 3.5q11 0 32.5-12.5T192 201t74.5-28 96.5-13q34 0 60.5 7t46 20 29.5 33 10 46q0 30-18.5 51.5t-49 37.5-69 30-79 31-79 39-69 54-49 77T78 694q0 64 25 117.5t72 91.5 114.5 59T441 983q42 0 81.5-6t71.5-15 54-19.5 31.5-18 13.5-15 6-18 3.5-26T704 827q0-27-1.5-44t-5-27-9.5-13.5-14-3.5q-9 0-28 10.5T598.5 772t-66 22.5T447 805q-34 0-59-7t-41-20-24-30.5-8-37.5q0-31 19-52t50-37 70.5-30 80-30.5 80-38.5 70.5-54 50-76.5T754 286q0-76-28.5-134T645 55 522-3.5 368-23q-50 0-95.5 7.5T191 3.5 131 27 96 49.5t-17 33-6 66.5z"/><glyph unicode="t" horiz-adv-x="710" d="M23 858q0 29 2.5 49t7.5 31.5T45.5 955t17.5 5h106v199q0 10 5.5 18t20 13.5 39 8 60.5 2.5q37 0 61.5-2.5t38.5-8 20-13.5 6-18V960h194q10 0 17.5-5t12.5-16.5 7.5-31.5 2.5-49q0-55-10-78.5T615 756H420V337q0-73 23-109.5t82-36.5q20 0 36 3.5t28.5 8 21 8T626 214q6 0 11.5-3.5t8.5-14 5.5-28.5 2.5-46q0-44-5.5-67.5t-14.5-33-26.5-17-41-13-51-8.5-55.5-3q-75 0-130 19t-91 58.5-53 99.5-17 142v457H62q-19 0-29 23.5T23 858z"/><glyph unicode="u" horiz-adv-x="1099" d="M121 380v546q0 10 5.5 17.5t20 12.5 39 7.5T246 966q37 0 61-2.5t38.5-7.5 20.5-12.5 6-17.5V422q0-70 9-107t27.5-63.5 47-41T522 196q48 0 96.5 35T722 333v593q0 10 5.5 17.5t20 12.5 38.5 7.5 61 2.5 61-2.5 38-7.5 20-12.5 6-17.5V34q0-10-5-17.5T949.5 4t-33-7.5T865-6q-33 0-53.5 2.5T779 4t-17 12.5-5 17.5v103Q683 57 606.5 17T448-23q-92 0-154.5 30t-101 82-55 120.5T121 380z"/><glyph unicode="v" horiz-adv-x="969" d="M22 927q0 10 5.5 17.5T47 957t38.5 7 61.5 2q41 0 66-2.5t39.5-7 20.5-13 10-20.5l203-655 6-25 6 25 200 655q3 12 9.5 20.5t20.5 13 37.5 7T827 966q37 0 60.5-2t36.5-7 18-12.5 5-17.5q0-5-.5-12t-2-15.5-4-19.5-6.5-25L666 48q-5-17-13.5-27.5T624.5 4t-53-8T484-6q-53 0-86.5 2.5T345 5t-27.5 16.5T304 48L36 855q-6 20-9.5 36t-4 23-.5 13z"/><glyph unicode="w" horiz-adv-x="1526" d="M35 928q0 10 5.5 17.5t20 12 39 6.5 61.5 2q40 0 65-2t39-7 19.5-13.5T293 923l177-655 2-12 2 12 166 655q3 12 9.5 20.5T669 957t36.5 7 60.5 2 60-2.5 36.5-7 19-12T890 927l178-660 3-11 2 12 170 655q2 12 8 20.5t20 13.5 38 7 61 2 60.5-2 37-6.5 18.5-12 5-17.5q0-11-3-27t-11-46L1239 48q-5-17-13-27.5T1201.5 4t-47-8-79.5-2-80 2.5T946.5 5 921 21.5 909 48L759 590l-2 9-2-9L617 48q-4-17-11.5-27.5T580 4t-49-8-80-2q-50 0-80.5 2.5t-48 8.5T297 21.5 285 48L49 855q-9 29-11.5 45.5T35 928z"/><glyph unicode="x" horiz-adv-x="941" d="M32 25q0 11 9 27l247 439L60 903q-9 18-9.5 30.5T63 953t41.5 10 77.5 3q44 0 70.5-1.5T294 960t22-9.5 12-16.5l159-298 158 298q3 8 9 14t19 10 35.5 6 61.5 2q44 0 70.5-2t38-9 11-19.5T878 903L656 498 901 52q8-16 8-27l-1-1q0-11-14-18t-43-9.5T774-6q-45 0-72.5 1.5t-43 6-23 11T624 29L459 346 294 29q-4-10-11-16.5t-21.5-11-40.5-6T153-6q-44 0-70 2.5T45 6q-13 7-13 19z"/><glyph unicode="y" horiz-adv-x="970" d="M22 918.5q0 18.5 12 29T74.5 962t75.5 4q43 0 68-1.5t39-7.5 21-18.5 14-35.5l210-597h3l192 609q6 26 15.5 34.5T744 962t77 4q43 0 71.5-4t42-15 13.5-29.5-8-43.5L643 0 535-316q-9-25-49-36t-117-11q-40 0-64 3.5T269-348t-13 20 6 29L381 0q-13 6-23.5 18.5T342 45L35 865q-13 35-13 53.5z"/><glyph unicode="z" horiz-adv-x="814" d="M69 77v46q0 18 1.5 32.5t6 28 12 27.5 19.5 31l334 516H126q-19 0-30.5 24T84 859q0 29 2.5 48.5t7.5 31 13 16.5 19 5h545q14 0 24-3t16.5-11 10-22 3.5-35v-49q0-20-2-35.5t-6-29.5-11.5-28-17.5-30L356 202h352q9 0 17-4t13.5-15 8.5-30.5 3-49.5q0-29-3-49.5T739 21 726 4.5 708 0H125Q98 0 83.5 18T69 77z"/><glyph unicode="{" horiz-adv-x="704" d="M54 570q0 27 2 45.5t6.5 29.5 11 15.5T90 667q70 10 107 68t37 171v129q0 114 12.5 185.5t44 120 83.5 73 130 24.5q26 0 47-2.5t43-7.5q9-1 16-6t12-15 7.5-27.5 2.5-42.5q0-26-3-43t-8-28-13-15.5-16-4.5l-37-1q-25-1-41.5-9.5t-27-30-15-58T467 1034V910q0-77-11-129t-35.5-94-63.5-72.5-96-43.5q57-13 96-43t63.5-72.5T456 361t11-128V65q0-76 4.5-112.5t14-58 24-30.5 36.5-10h37q14-1 24-5.5t15.5-15T630-194t2-44q0-26-2.5-42.5T622-307t-12-15-15-7q-23-6-44-8t-47-2q-79 0-131 25t-83 72.5T246.5-122 234 64v172q0 63-8 100t-25 65.5-43.5 47.5T93 474q-10 2-17 7.5t-12 16-7.5 28.5-2.5 44z"/><glyph unicode="|" horiz-adv-x="973" d="M368-323v1726q0 10 5.5 18t19.5 13.5 36.5 8.5 56.5 3q35 0 57.5-3t36.5-8.5 19.5-13.5 5.5-18V-323q0-10-5.5-18T580-354.5t-36.5-8T486-365q-34 0-56.5 2.5t-36.5 8-19.5 13.5-5.5 18z"/><glyph unicode="}" horiz-adv-x="704" d="M105-238q0 26 3 43t8.5 28 13 15.5T145-146h38q25 1 41.5 9.5t27 30 15 58.5T271 65v125q0 76 11 135t35 109.5 63.5 88T477 573q-57 13-96.5 36T317 666t-35 79-11 122v167q0 76-4.5 112.5T253 1205t-24 30.5-37 9.5l-36 1q-15 0-25 4.5t-16 14.5-8 27.5-2 44.5q0 25 2.5 42.5t8 27.5 12.5 15 16 6q23 6 44 8t46 2q79 0 131-24.5t83-72.5 43.5-119.5T504 1035V863q0-62 8-92.5t24.5-50.5 43.5-32 65-19q9-1 16.5-6.5t12-16.5 7.5-28.5 3-43.5q0-28-2.5-46t-6.5-29-11-16-16-6q-38-5-65-29.5t-44.5-61-26-81.5-8.5-112V64q0-114-12.5-185.5t-44-119.5-83.5-73-130-25q-25 0-46 2.5t-46 7.5q-8 2-14.5 7T116-307t-8 26.5-3 42.5z"/><glyph unicode="~" d="M57 822v27q0 80 20.5 140t57 99.5 86 58.5 107.5 19q43 0 76-7.5t59.5-21 47-31T551 1068t36-40 31-33 31.5-22 38.5-8q24 0 42 10.5t29.5 29.5 17 46 5.5 62q0 17 24 24.5t67 7.5q28 0 46-2.5t28.5-8 15-13.5 3.5-19v-32q-1-79-24-138t-60-97.5-85.5-57.5T695 758q-43 0-76 8t-59 21.5-46.5 31.5-41 39-36.5 40-31.5 33-31.5 21.5-38 7.5q-25 0-43-10.5t-29-30-16.5-46T241 815q0-19-22.5-27t-69.5-8q-27 0-45 2.5t-28.5 8T61 804t-4 18z"/><glyph unicode="¡" horiz-adv-x="667" d="M155 1060q0 41 6.5 69t23 45 43.5 24.5 68 7.5 68.5-7.5T408 1174t22.5-45 6.5-69q0-42-6.5-70.5t-22.5-46-43.5-25T296 911t-68 7.5-43.5 25-23 46-6.5 70.5zm5-1201l26 908q1 10 6 18t17.5 13.5 34 8.5 52.5 3q32 0 53-3t33.5-8.5T400 785t6-18l26-908q0-13-6-23t-21.5-16.5-42-9.5-66.5-3-66 3.5-41.5 10-22 16T160-141z"/><glyph unicode="¢" d="M169 627q0 112 24 198t67.5 148.5 104.5 101 135 54.5v137q0 10 4.5 18t16.5 13.5 32 8 50 2.5 50.5-2.5 32-8T702 1284t5-18v-132q22-3 46.5-10t47-17 41.5-22 30.5-23 16-19.5 7.5-20 4-28 1-38.5q0-19-2-38t-7-34-14-25-22-10q-16 0-33.5 14t-43 31-61 31.5T631 940q-44 0-80.5-16.5t-64-52.5-43-92T428 643q0-77 14-132.5t41.5-91 67-52.5 90.5-17 87 15.5 62 34.5 45 34.5 32 15.5q9 0 15-9t9-24.5 4-37.5 1-48q0-43-4.5-64.5t-15-33.5-28.5-24-39.5-23-47-19.5T707 153V15q0-10-4.5-17.5T686-15t-32-7.5-50-2.5-50 2.5-32 7.5-16.5 12.5T501 15v134q-163 26-247.5 148T169 627z"/><glyph unicode="£" horiz-adv-x="1038" d="M76 101q0 29 2.5 48.5t8 31.5 13 17 16.5 5h106v356H116q-9 0-16 4.5t-12.5 16T79 610t-3 48q0 28 2.5 47t8 30.5 13 16.5 16.5 5h106v92q0 122 27 210.5t79 145.5 129 83.5 177 26.5q44 0 84.5-6.5t74.5-18 61.5-27 40-28.5 18-21.5 8.5-21 4.5-30.5 1.5-44q0-28-2.5-47t-7.5-30.5-12-16.5-15-5q-14 0-31.5 14t-44 30.5T752 1094t-86 14-85-16.5-57-48-32-78T482 859V757h269q9 0 16.5-5t12.5-16.5 8-30.5 3-47q0-29-3-48t-8.5-30.5-12.5-16-16-4.5H482V203h436q9 0 16.5-5t12.5-17 8-31.5 3-48.5q0-28-3-47.5T946.5 22 934 5t-16-5H116q-9 0-16 5T87.5 22 79 53.5 76 101z"/><glyph unicode="¤" d="M38 1107.5q-5 17.5 4.5 27.5t35 14 69.5 4q38 0 61.5-2t38-5.5T268 1135t12-17l86-160q29 13 68 21t84 8q42 0 76.5-6.5T657 960l85 159q4 11 11 18t21.5 11 38 5.5 62.5 1.5q44 0 69.5-4t35-14 4-27.5T962 1065L830 858q37-47 58.5-116T910 586t-24.5-157T817 308l135-206q16-27 21-45t-4.5-28-35-14-69.5-4q-38 0-61.5 1.5t-38 5.5T743 29t-12 17l-85 160q-29-13-65.5-21t-81.5-8q-40 0-73.5 5.5T368 199L283 40q-5-11-12-18t-21.5-10.5-38-5T150 5q-44 0-69.5 3.5T45 22t-5 27.5T62 94l131 201q-42 49-64.5 116.5T106 569q0 92 24 163.5T195 853L60 1063q-17 27-22 44.5zM331 589q0-59 11.5-102t34-72 57-43.5T513 357q44 0 76.5 17t53.5 45.5 31.5 68.5 10.5 86q0 52-10 95t-32 73.5-56 48-82 17.5q-44 0-76.5-17t-54-47-32.5-69.5-11-85.5z"/><glyph unicode="¥" horiz-adv-x="1038" d="M36.5 1252q-7.5 21 2.5 32t40 13.5 84 2.5q43 0 70-1.5t43-5.5 24.5-12 14.5-22l110-208q29-56 54.5-111.5T528 830q24 54 49 109t55 112l110 208q7 14 14 22.5t21.5 12 40.5 5 70 1.5q48 0 75.5-2.5t36.5-12.5 1-31.5-29-57.5L651 642v-36h250q14 0 23-19t9-65q0-49-9.5-69T901 433H651V308h250q14 0 23-19.5t9-66.5q0-48-9.5-68T901 134H651V32q0-10-6.5-17.5T623 2.5 582.5-4 519-6t-63.5 2T415 2.5t-21.5 12T387 32v102H138q-14 0-23.5 20t-9.5 68q0 47 9.5 66.5T138 308h249v125H138q-14 0-23.5 20t-9.5 69q0 46 9.5 65t23.5 19h249v36L65 1196q-21 35-28.5 56z"/><glyph unicode="¦" d="M391 309q0 10 5.5 17.5t19 13.5 36.5 8.5 57 2.5 57-2.5 36.5-8.5 19-13.5T627 309v-648q0-10-5.5-18t-19-13-36.5-8-57-3-57 3-36.5 8-19 13-5.5 18v648zm0 462v643q0 10 5.5 18t19 13 36.5 8 57 3 57-3 36.5-8 19-13 5.5-18V771q0-10-5.5-18t-19-13.5T566 731t-57-3-57 3-36.5 8.5-19 13.5-5.5 18z"/><glyph unicode="§" d="M86 585q0 43 13 83.5t36 76 55.5 65T262 860q-39 38-59 87.5T183 1065q0 69 26.5 123t75 91 114.5 56.5 145 19.5q43 0 83-6.5t72-16 54.5-20.5 29.5-17 10.5-12 6-17 4-27.5 1.5-40.5q0-27-1.5-44t-5.5-27-9.5-14-13.5-4q-11 0-28.5 10.5t-44.5 23-64.5 23.5-87.5 11q-34 0-58-8.5t-39-22-21.5-30.5-6.5-35q0-26 8-46.5t26.5-38.5 49.5-34.5 76-35.5l87-35q65-26 114-55.5t83-67.5 51-86 17-111q0-45-12.5-85.5t-35.5-76-54.5-64.5-70.5-51q40-38 60-85.5T844 101q0-76-28.5-134T735-130t-122.5-58.5T459-208q-56 0-103 9.5T273-177t-58.5 25-29 19-10 12.5T170-103t-3.5 26-1.5 37q0 29 2 47t6 28.5 10 14 15 3.5q14 0 34.5-12.5t51-28 73-28T456-28q33 0 59.5 6.5t45 20.5T589 32.5 599 79q0 25-8 44.5T564.5 160 515 193.5 439 228l-88 35q-64 26-113.5 56t-83 67.5-51 86T86 585zm242 21q0-25 7.5-46t23.5-38.5 40.5-32T459 461l78-31q18-7 33-14.5t28-15.5q50 23 73.5 64t23.5 84q0 53-31 86t-99 59l-78 33q-18 7-33.5 14T425 754q-50-22-73.5-62.5T328 606z"/><glyph unicode="¨" horiz-adv-x="849" d="M0 960zm102 262q0 72 27 99t100 27q76 0 101.5-26.5T356 1227q0-70-26.5-97.5T229 1102q-75 0-101 26.5t-26 93.5zm391 0q0 72 26.5 99t100.5 27q75 0 101-26.5t26-94.5q0-70-26.5-97.5T619 1102q-74 0-100 26.5t-26 93.5z"/><glyph unicode="©" horiz-adv-x="1709" d="M158 665q0 187 47 325t137 229 220.5 136 297.5 45q171 0 300-44.5t216.5-131T1508 1009t44-298q0-186-47-324t-137-229-220.5-136T848-23q-171 0-300 43.5t-216 130T201.5 366 158 665zm181 13q0-138 29-240.5T459.5 268t161-100T858 135q147 0 245.5 43T1261 296.5t84 178.5 25 222q0 131-26.5 232.5t-87.5 171-160.5 105.5-244.5 36q-134 0-230.5-37t-159-108.5T369 920t-30-242zm156-4q0 115 29 199t80.5 138.5 122.5 81 155 26.5q37 0 71-6t63-16 52-23.5 33.5-24 14.5-17 6.5-16.5 3.5-24 1-33q0-16-2-32t-6-29-11.5-21-19.5-8q-14 0-29.5 12.5t-37 27-52 26.5-76.5 12q-86 0-132.5-65.5T714 689q0-65 10.5-113.5t33.5-81 58-48.5 84-16q43 0 74.5 13.5t55 30 40 30T1099 517q6 0 10.5-4t7.5-14.5 4.5-28 1.5-45.5q0-22-1-37.5t-3-26-5.5-17T1101 329t-31.5-23-53.5-26-69.5-19.5T865 253q-90 0-159 27.5T590 362t-71 132.5T495 674z"/><glyph unicode="ª" horiz-adv-x="852" d="M102 816q0 55 21 95.5t64 66.5 108 38.5 155 12.5h65v31q0 24-5 42t-18.5 30-35.5 18.5-57 6.5q-43 0-76.5-9.5t-58-20T223 1108t-28-9q-21 0-32 23t-11 67q0 15 2 26.5t6 20 12.5 15T213 1271t89 28 127 14q77 0 132.5-14.5t91-45.5 52-78.5T721 1063V648q0-7-3.5-12.5t-13-9-26-5.5-41.5-2q-27 0-44.5 2t-27 6-13 9.5T549 650v41h-3q-34-38-85-60.5T345 608q-57 0-102 13t-76.5 39-48 65-16.5 91zm8-405q0 48 9.5 67.5T151 498h538q22 0 31.5-19t9.5-68q0-46-9.5-65.5T689 326H151q-22 0-31.5 19.5T110 411zm198 413q0-37 24-56.5t65-19.5q18 0 33.5 4t29.5 12 27.5 20.5T515 813v99h-58q-42 0-70-5.5t-46-17-25.5-28T308 824z"/><glyph unicode="«" horiz-adv-x="1103" d="M89.5 528q.5 22 16.5 47l213 347q6 9 12.5 15.5t18.5 10 30.5 5.5 48.5 2q36 0 58.5-3.5t33-11T532 923t-6-23L331 525l200-383q7-13 6.5-23.5t-11-17.5T494 90t-59-4q-29 0-47.5 2T357 93.5t-19 10-12 15.5L102 484q-13 22-12.5 44zm413-1.5Q503 548 519 574l206 328q5 8 12 14.5t18.5 10 29.5 5 47 1.5q36 0 58.5-3.5t33.5-10 11.5-16T930 881L740 526l203-369q6-12 5-20.5T936.5 122t-33-9-58.5-3q-29 0-47.5 1t-30.5 4.5-18.5 8.5-11.5 14L515 484q-13 21-12.5 42.5z"/><glyph unicode="¬" d="M47 588q0 27 3 45t8.5 29.5 13 16.5 16.5 5h760q43 0 64.5-20t21.5-68V277q0-10-5-18.5t-17-14-31-8.5-48-3-48.5 3-31 8.5-17 14T731 277v214H86q-10 0-17 4.5t-12 16-7.5 30.5-2.5 46z"/><glyph unicode="®" horiz-adv-x="1038" d="M105 1014q0 86 32.5 160t88.5 129 132 86.5 163 31.5q90 0 165.5-30.5t130.5-84 85.5-128T933 1016q0-86-32.5-160.5T812 726t-132-86.5T517 608q-89 0-164.5 30.5t-130.5 84-86 128-31 163.5zm118 4q0-67 22-123.5t61.5-97.5 93-63.5T518 711q67 0 122 23.5t93.5 64.5 60 95.5T815 1012q0 67-22 123t-61 97-93.5 63.5T520 1318q-67 0-121.5-23.5T305 1230t-60.5-95.5T223 1018zm124-179v342q0 27 13 42t41 15h128q35 0 66.5-6t55-20 37.5-37.5 14-57.5q0-45-25.5-73t-68.5-39q26-7 46-25t33-53l20-59q7-25 7-34 0-5-2.5-8.5T701 820t-21.5-3-35.5-1-35 1.5-20.5 4.5-11 8-5.5 13l-17 66q-10 34-22.5 45.5T496 966h-24V839q0-13-11.5-18t-48.5-5q-39 0-52 5t-13 18zm125 214h36q34 0 47 14t13 35q0 9-3 17.5t-9.5 14.5-18 9.5-28.5 3.5h-37v-94z"/><glyph unicode="¯" horiz-adv-x="799" d="M0 960zm102 271q0 25 2.5 43t7.5 28.5 13.5 15.5 20.5 5h510q11 0 19-4.5t12.5-15.5 7-28.5 2.5-43.5-2.5-43-7-28-12.5-15.5-19-4.5H146q-12 0-20.5 4.5T112 1160t-7.5 28-2.5 43z"/><glyph unicode="°" horiz-adv-x="701" d="M0 1294zm74-177q0 56 21 104t58 83.5 88.5 56.5 112.5 21q62 0 112.5-19t86-52.5 55-80.5 19.5-103-20.5-104-58-84-89-56.5T346 862t-112 19-86 52.5-55 80.5-19 103zm171 6q0-24 8-45.5t22-36.5 34-23.5 43-8.5q21 0 40.5 8.5t33.5 24 21.5 36 7.5 43.5q0 24-8 45.5t-22 36.5-34 23-43 8q-21 0-40.5-8.5t-33-23.5-21.5-35.5-8-43.5z"/><glyph unicode="±" d="M69 756q0 26 3 44.5t8 29.5 12 15.5 16 4.5h302v329q0 10 5 17t16.5 12.5 31 8.5 47.5 3 47-3 30.5-8.5T604 1196t5-17V850h303q8 0 15-4.5t12.5-15.5 8.5-29.5 3-44.5q0-52-12-73.5T909 661H609V333q0-9-5-16.5T587.5 304t-30.5-8-47-3-47.5 3-31 8-16.5 12.5-5 16.5v328H110q-17 0-29 21.5T69 756zM84 96q0 28 2.5 46.5t7.5 30 12 16.5 16 5h778q8 0 15-5t12.5-16.5 8-30T938 96q0-27-3.5-46t-9-30-13-15.5T897 0H125q-8 0-15.5 4.5T96.5 20t-9 30T84 96z"/><glyph unicode="²" horiz-adv-x="692" d="M62 792q0 24 2.5 40.5T73 863t16 26 25 28l132 130q35 35 58 63t35.5 52.5 17 46 4.5 41.5q0 38-24 61t-70 23q-31 0-57-9t-46.5-19.5-36-19.5-24.5-9q-6 0-11 4t-8.5 14-5 26.5T77 1365q0 29 3.5 45.5T94 1437t33 22.5 55.5 23.5 71.5 18.5 82 7.5q68 0 118.5-15.5t84.5-44 50.5-68.5 16.5-87q0-35-7-69.5t-30.5-76-68-92T381 938l-72-67h298q12 0 21-18t9-60-6.5-60-21.5-18H123q-17 0-29 2.5T75 728t-10 23-3 41z"/><glyph unicode="³" horiz-adv-x="688" d="M56 838q0 31 5.5 45T79 897q7 0 21.5-7t37-15.5T190 859t67-7q63 0 96.5 23t33.5 68q0 22-9 40.5t-29 31-50.5 18.5-73.5 6h-61q-11 0-17 3t-10 11.5-5.5 23-1.5 36.5q0 21 2 34t5.5 20.5 9.5 10.5 15 3h64q72 0 107 25.5t35 71.5q0 36-24 57t-76 21q-33 0-61.5-8t-50.5-19-37.5-19-23.5-8q-13 0-18 15t-5 54q0 17 1 29t2.5 19.5 4 12.5 8.5 11 28 18 53 22.5 71.5 18 87.5 7.5q66 0 116-14.5t82.5-40.5 48.5-63 16-81q0-71-36-120t-111-67v-2q40-3 74-18t57.5-38.5 36.5-54 13-64.5q0-64-26.5-110.5t-72-77-107-45.5T288 698q-46 0-83.5 5.5T139 717t-44.5 15.5-21 12-8 11-5.5 16-3 25.5-1 41z"/><glyph unicode="´" horiz-adv-x="616" d="M0 960zm102.5 152q1.5 10 10.5 23l143 229q7 11 17 19t25 12.5 38 6.5 56 2q46 0 72.5-4t38-11.5T513 1371t-10-21l-194-232q-8-10-16-16.5t-20.5-10.5-31.5-6-48-2q-35 0-55.5 3t-28.5 9.5-6.5 16.5z"/><glyph unicode="µ" horiz-adv-x="1154" d="M126-320V926q0 10 6 17.5t20.5 12.5 38.5 7.5 61 2.5 61-2.5 38.5-7.5 20.5-12.5 6-17.5V385q0-88 38-138.5T527 196q49 0 97.5 34.5T727 332v594q0 10 6 17.5t20 12.5 38.5 7.5T853 966q36 0 60.5-2.5T952 956t20-12.5 6-17.5V310q0-34 4-57t12-37 22-20.5 34-6.5q13 0 22.5 1.5t17 3 13 3 11.5 1.5q7 0 11.5-3t8-13 5-27.5 1.5-46.5q0-45-5.5-68t-14-31.5T1098-5t-33-9-40-6-44-2q-88 0-145 34.5T754 126Q688 50 624 17T497-16q-46 0-80.5 12T360 35q3-26 6-55t6-59.5 4.5-59.5 1.5-53v-128q0-10-6-18t-20.5-13.5T313-360t-61-3-61 3-38.5 8.5T132-338t-6 18z"/><glyph unicode="¶" horiz-adv-x="1224" d="M82 893q0 87 30 160.5t86.5 127 139 83.5 207.5 30h463q29 0 44.5-17t15.5-46V-203q0-8-4.5-14t-15.5-10.5-29-6.5-46-2q-27 0-45.5 2t-29.5 6.5-15.5 10.5-4.5 14v1322H702V-203q0-8-4.5-14T682-227.5t-29.5-6.5-45.5-2q-55 0-75 8.5T512-203v708q-101 0-181 25.5T195.5 606 111 728 82 893z"/><glyph unicode="·" horiz-adv-x="548" d="M125 592q0 93 32.5 125.5T275 750q83 0 115-32t32-120q0-93-32.5-125.5T273 440t-116 32-32 120z"/><glyph unicode="¸" horiz-adv-x="621" d="M102-266q0 40 7.5 55.5T137-195h116q29 0 43.5 12.5T311-148q0 12-5 27t-12 31L253 0h202l30-66q17-39 25.5-68t8.5-56q0-46-17-79t-46-54-68-31.5-84-10.5q-43 0-81 6t-62.5 13-35 12-15 13-6.5 20.5-2 34.5z"/><glyph unicode="¹" horiz-adv-x="517" d="M29 1311q0 19 1 31.5t4 21 8 14.5 14 12l172 104q5 2 11 4t16 3 25.5 1.5 40.5.5q29 0 46.5-1.5t26.5-4 11-6 2-8.5V737q0-7-4.5-12.5t-15.5-9-31-5-50-1.5-49.5 1.5-31 5-16.5 9-5 12.5v574l-120-58q-17-8-27.5-9t-16.5 5.5-8.5 21.5-2.5 40z"/><glyph unicode="º" horiz-adv-x="891" d="M85 958q0 82 22.5 148t67.5 112.5 112.5 71.5 158.5 25q87 0 152.5-23.5t109-68.5 66-110T796 966q0-81-23.5-147.5T704 705t-112-72-152-25q-92 0-159 22.5t-110.5 67-64.5 110T85 958zm37-547q0 48 10 67.5t32 19.5h552q22 0 31-19t9-68q0-46-9-65.5T716 326H164q-22 0-32 19.5T122 411zm189 552q0-43 6-78t21-59.5 40-38 62-13.5q32 0 56.5 10.5T537 817t24.5 57 8.5 84q0 42-6.5 77t-21.5 60-39.5 39.5T440 1149q-33 0-58-13t-40.5-36.5-23-58T311 963z"/><glyph unicode="»" horiz-adv-x="1103" d="M152 904.5q1 8.5 11.5 14.5t33 9 59.5 3q29 0 47.5-1t30-4.5 18-9T364 903l221-347q13-20 12.5-41.5T581 467L376 139q-6-9-12.5-15t-18.5-9.5-30-5-47-1.5q-37 0-59 3t-33 9.5-11.5 16.5 6.5 23l190 355-203 369q-7 12-6 20.5zm410.5 18q.5 10.5 11 17.5t32.5 11 60 4q29 0 47.5-2t30-5.5 18.5-10 12-15.5l224-366q13-21 12.5-43T994 465L781 119q-6-9-12.5-15.5t-18.5-10-30.5-5.5-47.5-2q-37 0-59 3.5t-33 11-11.5 17.5 5.5 23l195 375-200 383q-7 13-6.5 23.5z"/><glyph unicode="¼" horiz-adv-x="1347" d="M56 1125q0 17 .5 29t3.5 21 8.5 14.5T82 1200l176 99q4 2 9.5 3t14.5 2 25 1.5 41 .5q30 0 48-1t27.5-3.5 12-5.5 2.5-7V667q0-7-4-11.5t-15.5-8-31.5-5-51-1.5q-30 0-50.5 1.5t-32 4.5-16.5 8-5 12v462l-120-56q-18-7-29-9t-17 3.5-8 19-2 38.5zM78.5.5Q80 11 91 26l922 1263q9 11 18 19t23.5 13 34.5 7 49 2q33 0 52.5-4t28-12 6.5-19-12-25L291 7q-9-12-18.5-19.5T249-25t-34-7-49-2q-33 0-52.5 4t-28 12-7 18.5zM683 193q0 21 1 36t3.5 27 7 22.5T706 302l208 329q3 4 12 8.5t25.5 7.5 41.5 4.5 62 1.5q42 0 69-2t44-5.5 23.5-8.5 6.5-11V250h64q10 0 18-15t8-51q0-34-7-51t-19-17h-64V19q0-6-4.5-11T1177 0t-31-4.5-48-1.5q-28 0-47 1.5T1021 0t-16 8-5 11v97H723q-10 0-18 2.5t-12.5 10-7 23T683 193zm154 57h163v254h-2z"/><glyph unicode="½" horiz-adv-x="1415" d="M56 1125q0 17 .5 29t3.5 21 8.5 14.5T82 1200l176 99q4 2 9.5 3t14.5 2 25 1.5 41 .5q30 0 48-1t27.5-3.5 12-5.5 2.5-7V667q0-7-4-11.5t-15.5-8-31.5-5-51-1.5q-30 0-50.5 1.5t-32 4.5-16.5 8-5 12v462l-120-56q-18-7-29-9t-17 3.5-8 19-2 38.5zM78.5.5Q80 11 91 26l922 1263q9 11 18 19t23.5 13 34.5 7 49 2q33 0 52.5-4t28-12 6.5-19-12-25L291 7q-9-12-18.5-19.5T249-25t-34-7-49-2q-33 0-52.5 4t-28 12-7 18.5zM813 81q0 18 1.5 31t6 23.5 13 21T856 180l126 110q29 27 48.5 47t31.5 37.5 17.5 34.5 5.5 36q0 29-22 48t-58 19q-30 0-54-7t-43.5-16-33.5-16.5-23-7.5q-5 0-9.5 3.5T834 481t-5 24.5-2 38.5q0 27 3.5 39.5t11 20.5 28.5 18.5 50.5 20 68 15.5 82.5 6q63 0 109.5-13.5t77-38T1303 553t15-77q0-31-8-61t-29-62.5-57-68.5-91-77l-81-64h262q15 0 22.5-18t7.5-55q0-38-6.5-54T1319 0H874q-18 0-30 2t-19 10.5-9.5 25T813 81z"/><glyph unicode="¾" horiz-adv-x="1437" d="M59 755q0 32 5.5 42T80 807q9 0 22.5-6.5t34-14.5 49.5-14.5 71-6.5q31 0 53 6t35.5 15.5 20 22.5 6.5 28q0 18-7 32.5T341 894t-44.5 15-68.5 5h-63q-10 0-16.5 2.5t-10 9.5-5 19.5T132 977t1.5 31 5 18.5 9.5 8.5 14 2h68q64 0 95 20.5t31 55.5q0 27-21 45.5t-71 18.5q-29 0-55-7.5t-47.5-16-36.5-16-23-7.5q-5 0-9.5 2.5T85 1142t-4.5 19-1.5 31q0 15 .5 25.5t2 17.5 4.5 11 8.5 9 26.5 15.5 52 19.5 71 15 86 6q61 0 107.5-11t78-32.5 47-53.5 15.5-72q0-28-8.5-53t-25.5-45-42.5-35-59.5-23q42-4 73.5-16.5t52-32 30.5-45 10-53.5q0-50-23-89t-64.5-65.5T421 644t-128-14q-41 0-76.5 4.5T153 646t-48 15.5T76 679t-13 27-4 49zM165.5.5Q167 11 178 26l922 1263q9 11 18 19t23.5 13 34.5 7 49 2q33 0 52.5-4t28-12 6.5-19-12-25L378 7q-9-12-18.5-19.5T336-25t-34-7-49-2q-33 0-52.5 4t-28 12-7 18.5zM773 193q0 21 1 36t3.5 27 7 22.5T796 302l208 329q3 4 12 8.5t25.5 7.5 41.5 4.5 62 1.5q42 0 69-2t44-5.5 23.5-8.5 6.5-11V250h64q10 0 18-15t8-51q0-34-7-51t-19-17h-64V19q0-6-4.5-11T1267 0t-31-4.5-48-1.5q-28 0-47 1.5T1111 0t-16 8-5 11v97H813q-10 0-18 2.5t-12.5 10-7 23T773 193zm154 57h163v254h-2z"/><glyph unicode="¿" horiz-adv-x="949" d="M83 204q0 82 23.5 148t66 114 102 77T406 580l8 195q1 18 28.5 27t79.5 9q33 0 55.5-1.5T613 804t19-11 7-18l9-236q1-32-3-52t-14.5-32-26.5-16.5-38-4.5h-14q-53 0-91.5-17T397 372t-36.5-66-11.5-81q0-48 13.5-88t41-69 69-44.5T570 8q51 0 90 10t67 22 46.5 22T802 72q7 0 13-4.5T825 51t6.5-34 2.5-56q0-35-3-51t-13-26-38-23.5-67-25-87-19.5-100-8q-118 0-202 32.5T186.5-72 108 54 83 204zm296 857q0 41 6.5 69t23 45 44 24.5 67.5 7.5q42 0 69-7.5t43.5-24.5 23-45 6.5-69q0-42-6.5-70.5t-23-46-43.5-25-69-7.5q-40 0-67.5 7.5t-44 25-23 46-6.5 70.5z"/><glyph unicode="À" horiz-adv-x="1241" d="M26 44q3 21 15 56l399 1148q6 17 14 27.5t25.5 16 48.5 7 82 1.5q59 0 94-1.5t54.5-7 28-16.5 14.5-30L1201 98q12-36 15-57t-8-31.5-39-13-77-2.5q-51 0-79.5 1.5t-43.5 6T948 14t-10 21l-87 260H365L283 42q-4-14-10.5-23.5t-21-15-41-7.5T141-6Q95-6 69-3T33 11.5 26 44zm119 1250zm103.5 352q-4.5 12 5 21.5t35 15.5 71.5 6q37 0 61.5-1.5t42-6.5 30.5-14 26-24l180-204q11-14 13.5-24t-6.5-16.5-29-9.5-54-3q-31 0-52 2t-36 6.5-25.5 11T490 1421l-222 200q-15 13-19.5 25zM423 497h367l-183 550h-1z"/><glyph unicode="Á" horiz-adv-x="1241" d="M26 44q3 21 15 56l399 1148q6 17 14 27.5t25.5 16 48.5 7 82 1.5q59 0 94-1.5t54.5-7 28-16.5 14.5-30L1201 98q12-36 15-57t-8-31.5-39-13-77-2.5q-51 0-79.5 1.5t-43.5 6T948 14t-10 21l-87 260H365L283 42q-4-14-10.5-23.5t-21-15-41-7.5T141-6Q95-6 69-3T33 11.5 26 44zm353 1250zm44-797h367l-183 550h-1zm59 918q2 10 14 24l180 204q13 15 25.5 24t30 14 42.5 6.5 62 1.5q46 0 71.5-6t35-15.5 4.5-21.5-19-25l-222-200q-10-9-20.5-15.5t-25.5-11-36-6.5-52-2q-34 0-54.5 3t-29 9.5-6.5 16.5z"/><glyph unicode="Â" horiz-adv-x="1241" d="M26 44q3 21 15 56l399 1148q6 17 14 27.5t25.5 16 48.5 7 82 1.5q59 0 94-1.5t54.5-7 28-16.5 14.5-30L1201 98q12-36 15-57t-8-31.5-39-13-77-2.5q-51 0-79.5 1.5t-43.5 6T948 14t-10 21l-87 260H365L283 42q-4-14-10.5-23.5t-21-15-41-7.5T141-6Q95-6 69-3T33 11.5 26 44zm136 1250zm102 117q2 9 14 23l195 214q11 13 24 21t30.5 12.5 41.5 6 57 1.5q32 0 54-1t37-5.5 27-12.5 25-22l198-214q13-14 15.5-23.5t-6-15-29.5-7.5-56-2q-41 0-67 1.5t-41.5 5-24 9.5-16.5 15l-118 137-122-134q-9-11-17.5-17t-24-10-40.5-5.5-67-1.5q-34 0-54 2.5t-28.5 8-6.5 14.5zm159-914h367l-183 550h-1z"/><glyph unicode="Ã" horiz-adv-x="1241" d="M26 44q3 21 15 56l399 1148q6 17 14 27.5t25.5 16 48.5 7 82 1.5q59 0 94-1.5t54.5-7 28-16.5 14.5-30L1201 98q12-36 15-57t-8-31.5-39-13-77-2.5q-51 0-79.5 1.5t-43.5 6T948 14t-10 21l-87 260H365L283 42q-4-14-10.5-23.5t-21-15-41-7.5T141-6Q95-6 69-3T33 11.5 26 44zm140 1250zm101 133q0 57 15 101t43.5 73.5 69 45T486 1662q57 0 96.5-15.5t70-34.5 56.5-34.5 56-15.5q29 0 46 16.5t17 57.5q0 16 17 21t62 5 60.5-7.5T983 1624q0-115-56.5-175T764 1389q-57 0-96.5 15.5t-70.5 34-56.5 34T485 1488q-34 0-48.5-19t-14.5-54q0-9-4.5-14t-14.5-7.5-24.5-3.5-35.5-1q-45 0-60.5 7.5T267 1427zm156-930h367l-183 550h-1z"/><glyph unicode="Ä" horiz-adv-x="1241" d="M26 44q3 21 15 56l399 1148q6 17 14 27.5t25.5 16 48.5 7 82 1.5q59 0 94-1.5t54.5-7 28-16.5 14.5-30L1201 98q12-36 15-57t-8-31.5-39-13-77-2.5q-51 0-79.5 1.5t-43.5 6T948 14t-10 21l-87 260H365L283 42q-4-14-10.5-23.5t-21-15-41-7.5T141-6Q95-6 69-3T33 11.5 26 44zm146 1250zm102 236q0 71 28 98.5t104 27.5q78 0 104.5-26.5T537 1534q0-70-27.5-98T405 1408t-104 27-27 95zM423 497h367l-183 550h-1zm288 1033q0 71 27.5 98.5T843 1656t104-26.5 27-95.5q0-70-28-98t-105-28-103.5 27-26.5 95z"/><glyph unicode="Å" horiz-adv-x="1241" d="M26 44q3 21 15 56l399 1148q6 17 14 27.5t25.5 16 48.5 7 82 1.5q59 0 94-1.5t54.5-7 28-16.5 14.5-30L1201 98q12-36 15-57t-8-31.5-39-13-77-2.5q-51 0-79.5 1.5t-43.5 6T948 14t-10 21l-87 260H365L283 42q-4-14-10.5-23.5t-21-15-41-7.5T141-6Q95-6 69-3T33 11.5 26 44zm258 1250zm102 257q0 48 16 85.5t47 63.5 75.5 39.5T627 1753q116 0 175.5-49.5T862 1558q0-48-16.5-86t-47-63.5-76-39.5-103.5-14q-59 0-102.5 13t-72.5 38-43.5 61.5T386 1551zm37-1054h367l-183 550h-1zm116 1059q0-42 20-65t67-23q42 0 62.5 23t20.5 62-20 63-67 24q-41 0-62-22t-21-62z"/><glyph unicode="Æ" horiz-adv-x="1588" d="M-45 29q0 11 5.5 27.5T-21 100l570 1140q8 18 17.5 28.5t28 16.5 49.5 7.5 82 1.5h725q9 0 16.5-5t12.5-17.5 7.5-32 2.5-49.5q0-28-2.5-47.5t-7.5-31.5-12.5-17.5-16.5-5.5H990V771h390q10 0 17.5-5t12.5-17 7.5-31.5 2.5-47.5q0-29-2.5-48.5T1410 590t-12.5-17-17.5-5H990V206h466q9 0 16-5.5t12-17.5 7.5-31.5 2.5-48.5-2.5-48.5T1484 23t-12-17.5-16-5.5H807q-33 0-55 19.5T730 83v198H340L222 41q-6-14-14-23.5T184 3t-43-7-72-2Q37-6 15-5t-35.5 5-19 11-5.5 18zm466 453h309v606h-5z"/><glyph unicode="Ç" horiz-adv-x="1084" d="M79 630q0 165 44 293t123 215 189.5 132 243.5 45q54 0 104-9t92.5-23.5T952 1249t47.5-32.5 18.5-22.5 8-23 4.5-33 1.5-47q0-30-2-51t-7-34-12-19-16-6q-15 0-38 17.5t-59.5 39-87 39T690 1094q-77 0-137.5-31.5t-103-90T385 831t-22-187q0-114 23.5-197.5t67-137.5 105-80.5T697 202q67 0 119 16t89 36.5 60.5 36.5 36.5 16q10 0 16-4t10-16 6-33.5 2-57.5q0-25-1.5-42.5t-4.5-30-8-21.5-16-20.5T963.5 52 894 19 818-4.5 746-16l23-50q18-39 26.5-68t8.5-56q0-46-17-79t-46-54-68-31.5-84-10.5q-43 0-81 6t-62.5 13-35 12-15 13-6.5 20.5-2 34.5q0 40 7.5 55.5T422-195h116q29 0 43.5 12.5T596-148q0 12-5 27t-12 31l-34 77Q459-2 378 35.5t-149.5 113-109 197.5T79 630z"/><glyph unicode="È" horiz-adv-x="999" d="M63 1294zM141 83v1128q0 44 22.5 63.5T219 1294h646q9 0 16-5t12-17.5 7.5-32 2.5-49.5q0-28-2.5-47.5T893 1111t-12-17.5-16-5.5H403V772h391q9 0 16.5-5.5t12.5-17 7.5-31T833 671q0-29-2.5-48t-7.5-30.5-12.5-16.5-16.5-5H403V206h466q9 0 16.5-5.5T898 183t7.5-31.5T908 103t-2.5-48.5T898 23 885.5 5.5 869 0H219q-33 0-55.5 19.5T141 83zm25.5 1563q-4.5 12 5 21.5t35 15.5 71.5 6q37 0 61.5-1.5t42-6.5 30.5-14 26-24l180-204q11-14 13.5-24t-6.5-16.5-29-9.5-54-3q-31 0-52 2t-36 6.5-25.5 11T408 1421l-222 200q-15 13-19.5 25z"/><glyph unicode="É" horiz-adv-x="999" d="M141 83v1128q0 44 22.5 63.5T219 1294h646q9 0 16-5t12-17.5 7.5-32 2.5-49.5q0-28-2.5-47.5T893 1111t-12-17.5-16-5.5H403V772h391q9 0 16.5-5.5t12.5-17 7.5-31T833 671q0-29-2.5-48t-7.5-30.5-12.5-16.5-16.5-5H403V206h466q9 0 16.5-5.5T898 183t7.5-31.5T908 103t-2.5-48.5T898 23 885.5 5.5 869 0H219q-33 0-55.5 19.5T141 83zm162 1211zm103 121q2 10 14 24l180 204q13 15 25.5 24t30 14 42.5 6.5 62 1.5q46 0 71.5-6t35-15.5 4.5-21.5-19-25l-222-200q-10-9-20.5-15.5t-25.5-11-36-6.5-52-2q-34 0-54.5 3t-29 9.5-6.5 16.5z"/><glyph unicode="Ê" horiz-adv-x="999" d="M63 1294zM141 83v1128q0 44 22.5 63.5T219 1294h646q9 0 16-5t12-17.5 7.5-32 2.5-49.5q0-28-2.5-47.5T893 1111t-12-17.5-16-5.5H403V772h391q9 0 16.5-5.5t12.5-17 7.5-31T833 671q0-29-2.5-48t-7.5-30.5-12.5-16.5-16.5-5H403V206h466q9 0 16.5-5.5T898 183t7.5-31.5T908 103t-2.5-48.5T898 23 885.5 5.5 869 0H219q-33 0-55.5 19.5T141 83zm24 1328q2 9 14 23l195 214q11 13 24 21t30.5 12.5 41.5 6 57 1.5q32 0 54-1t37-5.5 27-12.5 25-22l198-214q13-14 15.5-23.5t-6-15-29.5-7.5-56-2q-41 0-67 1.5t-41.5 5-24 9.5-16.5 15l-118 137-122-134q-9-11-17.5-17t-24-10-40.5-5.5-67-1.5q-34 0-54 2.5t-28.5 8-6.5 14.5z"/><glyph unicode="Ë" horiz-adv-x="999" d="M77 1294zM141 83v1128q0 44 22.5 63.5T219 1294h646q9 0 16-5t12-17.5 7.5-32 2.5-49.5q0-28-2.5-47.5T893 1111t-12-17.5-16-5.5H403V772h391q9 0 16.5-5.5t12.5-17 7.5-31T833 671q0-29-2.5-48t-7.5-30.5-12.5-16.5-16.5-5H403V206h466q9 0 16.5-5.5T898 183t7.5-31.5T908 103t-2.5-48.5T898 23 885.5 5.5 869 0H219q-33 0-55.5 19.5T141 83zm38 1447q0 71 28 98.5t104 27.5q78 0 104.5-26.5T442 1534q0-70-27.5-98T310 1408t-104 27-27 95zm437 0q0 71 27.5 98.5T748 1656t104-26.5 27-95.5q0-70-28-98t-105-28-103.5 27-26.5 95z"/><glyph unicode="Ì" horiz-adv-x="546" d="M-166 1294zm103.5 352q-4.5 12 5 21.5t35 15.5 71.5 6q37 0 61.5-1.5t42-6.5 30.5-14 26-24l180-204q11-14 13.5-24t-6.5-16.5-29-9.5-54-3q-31 0-52 2t-36 6.5-25.5 11T179 1421l-222 200q-15 13-19.5 25zM141 36v1222q0 10 6.5 18t22 13 40.5 8 63 3q39 0 64-3t40-8 21.5-13 6.5-18V36q0-10-6.5-18T377 5t-40-8-64-3q-38 0-63.5 3T169 5t-21.5 13-6.5 18z"/><glyph unicode="Í" horiz-adv-x="546" d="M38 1294zM141 36v1222q0 10 6.5 18t22 13 40.5 8 63 3q39 0 64-3t40-8 21.5-13 6.5-18V36q0-10-6.5-18T377 5t-40-8-64-3q-38 0-63.5 3T169 5t-21.5 13-6.5 18zm0 1379q2 10 14 24l180 204q13 15 25.5 24t30 14 42.5 6.5 62 1.5q46 0 71.5-6t35-15.5 4.5-21.5-19-25l-222-200q-10-9-20.5-15.5t-25.5-11-36-6.5-52-2q-34 0-54.5 3t-29 9.5-6.5 16.5z"/><glyph unicode="Î" horiz-adv-x="546" d="M-188 1294zm102 117q2 9 14 23l195 214q11 13 24 21t30.5 12.5 41.5 6 57 1.5q32 0 54-1t37-5.5 27-12.5 25-22l198-214q13-14 15.5-23.5t-6-15-29.5-7.5-56-2q-41 0-67 1.5t-41.5 5-24 9.5-16.5 15l-118 137-122-134q-9-11-17.5-17t-24-10-40.5-5.5-67-1.5q-34 0-54 2.5t-28.5 8-6.5 14.5zM141 36v1222q0 10 6.5 18t22 13 40.5 8 63 3q39 0 64-3t40-8 21.5-13 6.5-18V36q0-10-6.5-18T377 5t-40-8-64-3q-38 0-63.5 3T169 5t-21.5 13-6.5 18z"/><glyph unicode="Ï" horiz-adv-x="546" d="M-178 1294zm102 236q0 71 28 98.5T56 1656q78 0 104.5-26.5T187 1534q0-70-27.5-98T55 1408t-104 27-27 95zM141 36v1222q0 10 6.5 18t22 13 40.5 8 63 3q39 0 64-3t40-8 21.5-13 6.5-18V36q0-10-6.5-18T377 5t-40-8-64-3q-38 0-63.5 3T169 5t-21.5 13-6.5 18zm220 1494q0 71 27.5 98.5T493 1656t104-26.5 27-95.5q0-70-28-98t-105-28-103.5 27-26.5 95z"/><glyph unicode="Ð" horiz-adv-x="1309" d="M15 670q0 29 2.5 48.5t7.5 31T37.5 766t16.5 5h106v440q0 44 22 63.5t55 19.5h333q172 0 293-40.5t203.5-120T1192 937t43-271q0-178-46.5-304.5t-134-206.5-212-117.5T546 0H237q-33 0-55 19.5T160 83v485H54q-9 0-16.5 4.5t-12.5 16-7.5 31.5-2.5 50zm407-462h137q108 0 181.5 28t123 84.5 74 140.5T962 657q0 92-21.5 171T872 965t-122 90.5-193 32.5H422V771h197q9 0 16.5-5t12.5-17 7.5-31.5T658 670q0-29-2.5-48.5T648 590t-12.5-17-16.5-5H422V208z"/><glyph unicode="Ñ" horiz-adv-x="1349" d="M141 37v1163q0 47 27.5 70.5T236 1294h141q38 0 64-6.5t46.5-21.5 38.5-41.5 37-65.5l252-473q22-43 43.5-84.5t41.5-83 39-81.5 37-80h1q-3 70-4.5 146T971 648v607q0 10 6 18t20 14 37 8.5 59 2.5q34 0 57-2.5t35.5-8.5 17.5-14 5-18V92q0-23-8-41t-21.5-30-32-17.5T1109-2H997q-35 0-60.5 7t-47 25.5-41.5 50-45 81.5L481 767q-28 54-57 116.5T372 1005h-2q4-72 6-143.5t2-147.5V37q0-10-5.5-18t-19-13.5T317-3t-59-3q-35 0-58 3t-36 8.5T146 19t-5 18zm75 1257zm101 133q0 57 15 101t43.5 73.5 69 45T536 1662q57 0 96.5-15.5t70-34.5 56.5-34.5 56-15.5q29 0 46 16.5t17 57.5q0 16 17 21t62 5 60.5-7.5 15.5-30.5q0-115-56.5-175T814 1389q-57 0-96.5 15.5t-70.5 34-56.5 34T535 1488q-34 0-48.5-19t-14.5-54q0-9-4.5-14t-14.5-7.5-24.5-3.5-35.5-1q-45 0-60.5 7.5T317 1427z"/><glyph unicode="Ò" horiz-adv-x="1385" d="M80 639q0 157 40 282.5T239 1135t195.5 135 270.5 47q147 0 259.5-39t188-120 114-204.5T1305 662q0-161-40-288t-119-215.5-195.5-135T681-23q-151 0-263.5 39.5T230 137 117.5 343 80 639zm161 655zm103.5 352q-4.5 12 5 21.5t35 15.5 71.5 6q37 0 61.5-1.5t42-6.5 30.5-14 26-24l180-204q11-14 13.5-24t-6.5-16.5-29-9.5-54-3q-31 0-52 2t-36 6.5-25.5 11T586 1421l-222 200q-15 13-19.5 25zM356 652q0-106 16-190.5T426 317t102-91.5T689 194t162 36 105 98 56.5 144.5T1029 648q0 102-16 185.5t-54.5 143-102.5 92-160 32.5q-97 0-162-36.5T429 967t-56.5-142.5T356 652z"/><glyph unicode="Ó" horiz-adv-x="1385" d="M80 639q0 157 40 282.5T239 1135t195.5 135 270.5 47q147 0 259.5-39t188-120 114-204.5T1305 662q0-161-40-288t-119-215.5-195.5-135T681-23q-151 0-263.5 39.5T230 137 117.5 343 80 639zm276 13q0-106 16-190.5T426 317t102-91.5T689 194t162 36 105 98 56.5 144.5T1029 648q0 102-16 185.5t-54.5 143-102.5 92-160 32.5q-97 0-162-36.5T429 967t-56.5-142.5T356 652zm105 642zm103 121q2 10 14 24l180 204q13 15 25.5 24t30 14 42.5 6.5 62 1.5q46 0 71.5-6t35-15.5 4.5-21.5-19-25l-222-200q-10-9-20.5-15.5t-25.5-11-36-6.5-52-2q-34 0-54.5 3t-29 9.5-6.5 16.5z"/><glyph unicode="Ô" horiz-adv-x="1385" d="M80 639q0 157 40 282.5T239 1135t195.5 135 270.5 47q147 0 259.5-39t188-120 114-204.5T1305 662q0-161-40-288t-119-215.5-195.5-135T681-23q-151 0-263.5 39.5T230 137 117.5 343 80 639zm153 655zm102 117q2 9 14 23l195 214q11 13 24 21t30.5 12.5 41.5 6 57 1.5q32 0 54-1t37-5.5 27-12.5 25-22l198-214q13-14 15.5-23.5t-6-15-29.5-7.5-56-2q-41 0-67 1.5t-41.5 5-24 9.5-16.5 15l-118 137-122-134q-9-11-17.5-17t-24-10-40.5-5.5-67-1.5q-34 0-54 2.5t-28.5 8-6.5 14.5zm21-759q0-106 16-190.5T426 317t102-91.5T689 194t162 36 105 98 56.5 144.5T1029 648q0 102-16 185.5t-54.5 143-102.5 92-160 32.5q-97 0-162-36.5T429 967t-56.5-142.5T356 652z"/><glyph unicode="Õ" horiz-adv-x="1385" d="M80 639q0 157 40 282.5T239 1135t195.5 135 270.5 47q147 0 259.5-39t188-120 114-204.5T1305 662q0-161-40-288t-119-215.5-195.5-135T681-23q-151 0-263.5 39.5T230 137 117.5 343 80 639zm157 655zm101 133q0 57 15 101t43.5 73.5 69 45T557 1662q57 0 96.5-15.5t70-34.5 56.5-34.5 56-15.5q29 0 46 16.5t17 57.5q0 16 17 21t62 5 60.5-7.5 15.5-30.5q0-115-56.5-175T835 1389q-57 0-96.5 15.5t-70.5 34-56.5 34T556 1488q-34 0-48.5-19t-14.5-54q0-9-4.5-14t-14.5-7.5-24.5-3.5-35.5-1q-45 0-60.5 7.5T338 1427zm18-775q0-106 16-190.5T426 317t102-91.5T689 194t162 36 105 98 56.5 144.5T1029 648q0 102-16 185.5t-54.5 143-102.5 92-160 32.5q-97 0-162-36.5T429 967t-56.5-142.5T356 652z"/><glyph unicode="Ö" horiz-adv-x="1385" d="M80 639q0 157 40 282.5T239 1135t195.5 135 270.5 47q147 0 259.5-39t188-120 114-204.5T1305 662q0-161-40-288t-119-215.5-195.5-135T681-23q-151 0-263.5 39.5T230 137 117.5 343 80 639zm163 655zm102 236q0 71 28 98.5t104 27.5q78 0 104.5-26.5T608 1534q0-70-27.5-98T476 1408t-104 27-27 95zm11-878q0-106 16-190.5T426 317t102-91.5T689 194t162 36 105 98 56.5 144.5T1029 648q0 102-16 185.5t-54.5 143-102.5 92-160 32.5q-97 0-162-36.5T429 967t-56.5-142.5T356 652zm426 878q0 71 27.5 98.5T914 1656t104-26.5 27-95.5q0-70-28-98t-105-28-103.5 27-26.5 95z"/><glyph unicode="×" d="M84 271q0 15 12 27l280 279L99 855q-5 6-9 14t-4 16q0 19 13.5 39.5t32 38T170 992t34 12q15 0 27-13l279-280 277 277q6 6 13.5 9.5t17.5 3.5q18 0 39-14t38.5-32.5 29-38T936 884q0-6-2.5-13.5T924 857L643 577l277-276q7-7 10-15t3-16q0-18-13.5-39t-32-38.5T849 163t-33-12q-8 0-14.5 3.5T789 163L510 443 232 167q-6-6-14-9.5t-17-3.5q-18 0-38.5 13.5t-38 32-29 38.5T84 271z"/><glyph unicode="Ø" horiz-adv-x="1394" d="M80 639q0 157 40 282.5T239.5 1135t197 135 272.5 47q52 0 97.5-6.5T899 1291l91 188q4 8 12 13.5t21.5 9.5 34 6 48.5 2q36 0 58-4t33-11.5 11.5-17.5-5.5-23l-115-236q55-39 97.5-92.5t71-122.5 43-154 14.5-187q0-161-40.5-288t-120-215.5-197-135T685-23q-53 0-101.5 6.5T496 2l-95-194q-4-8-12-14t-21.5-9.5T334-221t-48-2q-36 0-58.5 4t-33 11.5T183-190t5 23L306 74q-55 38-97.5 91t-71 122.5-43 157T80 639zm267 12q0-104 19-189t63-145l379 771q-24 10-50.5 15t-60.5 5q-101 0-168-36.5t-107.5-99T364 827t-17-176zm241-444q24-9 50-14t59-5q100 0 167 35.5T972 322t58.5 148 17.5 184q0 100-20 181t-63 142z"/><glyph unicode="Ù" horiz-adv-x="1337" d="M140 471v787q0 10 6 18t21.5 13 40.5 8 64 3q38 0 63-3t40-8 21.5-13 6.5-18V494q0-77 19-133.5t54.5-93.5 85-55.5T672 193q62 0 111 19t83 55.5 52.5 90T937 479v779q0 10 6 18t21 13 40.5 8 63.5 3 62.5-3 39.5-8 21-13 6-18V482q0-119-35-213t-103-159-168-99-230-34Q539-23 442 7.5T278 100 175.5 254.5 140 471zm65 823zm103.5 352q-4.5 12 5 21.5t35 15.5 71.5 6q37 0 61.5-1.5t42-6.5 30.5-14 26-24l180-204q11-14 13.5-24t-6.5-16.5-29-9.5-54-3q-31 0-52 2t-36 6.5-25.5 11T550 1421l-222 200q-15 13-19.5 25z"/><glyph unicode="Ú" horiz-adv-x="1337" d="M140 471v787q0 10 6 18t21.5 13 40.5 8 64 3q38 0 63-3t40-8 21.5-13 6.5-18V494q0-77 19-133.5t54.5-93.5 85-55.5T672 193q62 0 111 19t83 55.5 52.5 90T937 479v779q0 10 6 18t21 13 40.5 8 63.5 3 62.5-3 39.5-8 21-13 6-18V482q0-119-35-213t-103-159-168-99-230-34Q539-23 442 7.5T278 100 175.5 254.5 140 471zm304 823zm103 121q2 10 14 24l180 204q13 15 25.5 24t30 14 42.5 6.5 62 1.5q46 0 71.5-6t35-15.5 4.5-21.5-19-25l-222-200q-10-9-20.5-15.5t-25.5-11-36-6.5-52-2q-34 0-54.5 3t-29 9.5-6.5 16.5z"/><glyph unicode="Û" horiz-adv-x="1337" d="M140 471v787q0 10 6 18t21.5 13 40.5 8 64 3q38 0 63-3t40-8 21.5-13 6.5-18V494q0-77 19-133.5t54.5-93.5 85-55.5T672 193q62 0 111 19t83 55.5 52.5 90T937 479v779q0 10 6 18t21 13 40.5 8 63.5 3 62.5-3 39.5-8 21-13 6-18V482q0-119-35-213t-103-159-168-99-230-34Q539-23 442 7.5T278 100 175.5 254.5 140 471zm64 823zm102 117q2 9 14 23l195 214q11 13 24 21t30.5 12.5 41.5 6 57 1.5q32 0 54-1t37-5.5 27-12.5 25-22l198-214q13-14 15.5-23.5t-6-15-29.5-7.5-56-2q-41 0-67 1.5t-41.5 5-24 9.5-16.5 15l-118 137-122-134q-9-11-17.5-17t-24-10-40.5-5.5-67-1.5q-34 0-54 2.5t-28.5 8-6.5 14.5z"/><glyph unicode="Ü" horiz-adv-x="1337" d="M140 471v787q0 10 6 18t21.5 13 40.5 8 64 3q38 0 63-3t40-8 21.5-13 6.5-18V494q0-77 19-133.5t54.5-93.5 85-55.5T672 193q62 0 111 19t83 55.5 52.5 90T937 479v779q0 10 6 18t21 13 40.5 8 63.5 3 62.5-3 39.5-8 21-13 6-18V482q0-119-35-213t-103-159-168-99-230-34Q539-23 442 7.5T278 100 175.5 254.5 140 471zm75 823zm102 236q0 71 28 98.5t104 27.5q78 0 104.5-26.5T580 1534q0-70-27.5-98T448 1408t-104 27-27 95zm437 0q0 71 27.5 98.5T886 1656t104-26.5 27-95.5q0-70-28-98t-105-28-103.5 27-26.5 95z"/><glyph unicode="Ý" horiz-adv-x="1064" d="M21.5 1253.5q-5.5 20.5 6 31t42.5 13 86 2.5q46 0 73.5-2t43.5-7.5 23.5-14.5 14.5-23l144-318q21-46 41.5-97T538 731h2q19 54 39 105t39 97l142 316q5 16 12.5 25.5T795 1290t41 8 69 2q57 0 88.5-2.5t43-13 5.5-31.5-24-57L664 491V36q0-10-6.5-18T636 5t-40.5-8T532-6q-39 0-64 3t-40.5 8T406 18t-6 18v455L46 1196q-19 37-24.5 57.5zM342 1294zm103 121q2 10 14 24l180 204q13 15 25.5 24t30 14 42.5 6.5 62 1.5q46 0 71.5-6t35-15.5 4.5-21.5-19-25l-222-200q-10-9-20.5-15.5t-25.5-11-36-6.5-52-2q-34 0-54.5 3t-29 9.5-6.5 16.5z"/><glyph unicode="Þ" horiz-adv-x="1090" d="M141 30v1232q0 10 6 17.5t21 12.5 40.5 7.5 63.5 2.5q39 0 64-2.5t40-7.5 21.5-12.5 6.5-17.5v-175h131q46 0 88-3.5t84-11.5q74-14 133.5-45.5t101-79 63.5-111 22-141.5q0-110-33.5-194t-98-141.5T738 272t-213-30H404V30q0-10-6.5-17.5T376 0t-40-7-64-2q-38 0-63.5 2T168 0t-21 12.5-6 17.5zm263 416h135q54 0 94 17t66 47 39.5 72.5T752 675q0 76-33 127t-99 70q-23 8-48.5 10t-53.5 2H404V446z"/><glyph unicode="ß" horiz-adv-x="1136" d="M127 42v918q0 104 29 186t85.5 138.5 139 86T570 1400q99 0 175.5-25t128-69.5 78-106T978 1064q0-49-7.5-95t-22-82-27-46.5T888 830q-37 0-62-7.5T785.5 802 763 771t-7-37q0-40 24.5-68.5t61-53.5 79-51 78.5-61 60.5-84 24.5-120q0-66-24-124.5t-70.5-101-115-67T718-21q-34 0-65.5 5t-57 12.5-44 16T525 29t-12.5 27-4.5 58q0 26 2.5 43.5t7 29 11.5 16 15 4.5q12 0 25-7t30.5-15.5 41-15.5 56.5-7 58 9 41.5 24 25 36 8.5 44q0 30-14 52t-36.5 41.5-52 37.5-59.5 38-59 44.5-52 56.5-36.5 73.5T507 715q0 49 14 89.5t40.5 72T626 930t85 33q7 19 9.5 38.5t2.5 42.5q0 30-9 58t-28.5 49-50 34.5T562 1199q-50 0-85-16.5t-57-47-31.5-74T379 965V42q0-11-6-20.5T353 6t-38.5-9T253-6t-61 3-38.5 9T133 21.5 127 42z"/><glyph unicode="à" horiz-adv-x="1011" d="M71 267q0 78 30.5 135.5t91 95T343 553t209 18h87v54q0 42-8.5 73.5t-28 52.5-52 31-80.5 10q-63 0-112.5-14T270 747t-63.5-31-41.5-14q-11 0-19.5 7t-14 20-8.5 32-3 42q0 31 5 49t19 32.5 49 32 82 32.5 102.5 24.5T492 983q105 0 179.5-20.5t122.5-63T864 790t22-159V31q0-14-10-22T844.5-2.5 781-6q-45 0-65.5 3.5T686.5 9 678 31v71q-55-59-125.5-92T396-23q-71 0-130.5 18.5t-103 55T95 141 71 267zm40 693zm102 411q-1 10 10.5 17.5T262 1400t73 4q33 0 55.5-2t37.5-6.5 24.5-12.5 17.5-19l143-229q9-13 11-23t-6.5-16.5-28-9.5-54.5-3q-29 0-48 2t-32 6-21.5 10.5T417 1118l-193 232q-10 11-11 21zM317 275q0-56 35.5-88t98.5-32q53 0 97.5 27t90.5 79v152h-96q-61 0-104-9t-70-27-39.5-43.5T317 275z"/><glyph unicode="á" horiz-adv-x="1011" d="M71 267q0 78 30.5 135.5t91 95T343 553t209 18h87v54q0 42-8.5 73.5t-28 52.5-52 31-80.5 10q-63 0-112.5-14T270 747t-63.5-31-41.5-14q-11 0-19.5 7t-14 20-8.5 32-3 42q0 31 5 49t19 32.5 49 32 82 32.5 102.5 24.5T492 983q105 0 179.5-20.5t122.5-63T864 790t22-159V31q0-14-10-22T844.5-2.5 781-6q-45 0-65.5 3.5T686.5 9 678 31v71q-55-59-125.5-92T396-23q-71 0-130.5 18.5t-103 55T95 141 71 267zm224 693zm22-685q0-56 35.5-88t98.5-32q53 0 97.5 27t90.5 79v152h-96q-61 0-104-9t-70-27-39.5-43.5T317 275zm80.5 837q1.5 10 10.5 23l143 229q7 11 17 19t25 12.5 38 6.5 56 2q46 0 72.5-4t38-11.5T808 1371t-10-21l-194-232q-8-10-16-16.5t-20.5-10.5-31.5-6-48-2q-35 0-55.5 3t-28.5 9.5-6.5 16.5z"/><glyph unicode="â" horiz-adv-x="1011" d="M71 267q0 78 30.5 135.5t91 95T343 553t209 18h87v54q0 42-8.5 73.5t-28 52.5-52 31-80.5 10q-63 0-112.5-14T270 747t-63.5-31-41.5-14q-11 0-19.5 7t-14 20-8.5 32-3 42q0 31 5 49t19 32.5 49 32 82 32.5 102.5 24.5T492 983q105 0 179.5-20.5t122.5-63T864 790t22-159V31q0-14-10-22T844.5-2.5 781-6q-45 0-65.5 3.5T686.5 9 678 31v71q-55-59-125.5-92T396-23q-71 0-130.5 18.5t-103 55T95 141 71 267zm33 693zm103.5 158q5.5 13 19.5 31l158 223q6 10 15.5 15.5t25 9.5 37.5 5.5 53 1.5q32 0 53.5-2t36-6 23.5-10 16-14l157-223q14-19 19-31.5t-2-20-28.5-11-60.5-3.5q-32 0-50.5 1.5t-30 5.5-17.5 10.5-13 17.5l-104 150-104-150q-7-11-14-18t-19-10.5-30.5-5-48.5-1.5q-40 0-61.5 3.5t-28.5 11-1.5 20.5zM317 275q0-56 35.5-88t98.5-32q53 0 97.5 27t90.5 79v152h-96q-61 0-104-9t-70-27-39.5-43.5T317 275z"/><glyph unicode="ã" horiz-adv-x="1011" d="M55 960zm16-693q0 78 30.5 135.5t91 95T343 553t209 18h87v54q0 42-8.5 73.5t-28 52.5-52 31-80.5 10q-63 0-112.5-14T270 747t-63.5-31-41.5-14q-11 0-19.5 7t-14 20-8.5 32-3 42q0 31 5 49t19 32.5 49 32 82 32.5 102.5 24.5T492 983q105 0 179.5-20.5t122.5-63T864 790t22-159V31q0-14-10-22T844.5-2.5 781-6q-45 0-65.5 3.5T686.5 9 678 31v71q-55-59-125.5-92T396-23q-71 0-130.5 18.5t-103 55T95 141 71 267zm85 860q0 116 56 182.5t160 66.5q57 0 96.5-17.5t70-39 56.5-39 54-17.5q30 0 46 21.5t16 63.5q0 17 15 22.5t61 5.5q45 0 61.5-7.5T865 1336q0-121-57.5-185.5T648 1086q-39 0-69 8t-54 21-43.5 27.5-37.5 27-35.5 21-37.5 8.5q-33 0-47-23.5t-14-61.5q0-9-3.5-14.5t-12-8.5-24-4-39.5-1q-21 0-35.5 1.5t-23 6T160 1106t-4 21zm161-852q0-56 35.5-88t98.5-32q53 0 97.5 27t90.5 79v152h-96q-61 0-104-9t-70-27-39.5-43.5T317 275z"/><glyph unicode="ä" horiz-adv-x="1011" d="M71 267q0 78 30.5 135.5t91 95T343 553t209 18h87v54q0 42-8.5 73.5t-28 52.5-52 31-80.5 10q-63 0-112.5-14T270 747t-63.5-31-41.5-14q-11 0-19.5 7t-14 20-8.5 32-3 42q0 31 5 49t19 32.5 49 32 82 32.5 102.5 24.5T492 983q105 0 179.5-20.5t122.5-63T864 790t22-159V31q0-14-10-22T844.5-2.5 781-6q-45 0-65.5 3.5T686.5 9 678 31v71q-55-59-125.5-92T396-23q-71 0-130.5 18.5t-103 55T95 141 71 267zm16 693zm102 262q0 72 27 99t100 27q76 0 101.5-26.5T443 1227q0-70-26.5-97.5T316 1102q-75 0-101 26.5t-26 93.5zm128-947q0-56 35.5-88t98.5-32q53 0 97.5 27t90.5 79v152h-96q-61 0-104-9t-70-27-39.5-43.5T317 275zm263 947q0 72 26.5 99t100.5 27q75 0 101-26.5t26-94.5q0-70-26.5-97.5T706 1102q-74 0-100 26.5t-26 93.5z"/><glyph unicode="å" horiz-adv-x="1011" d="M71 267q0 78 30.5 135.5t91 95T343 553t209 18h87v54q0 42-8.5 73.5t-28 52.5-52 31-80.5 10q-63 0-112.5-14T270 747t-63.5-31-41.5-14q-11 0-19.5 7t-14 20-8.5 32-3 42q0 31 5 49t19 32.5 49 32 82 32.5 102.5 24.5T492 983q105 0 179.5-20.5t122.5-63T864 790t22-159V31q0-14-10-22T844.5-2.5 781-6q-45 0-65.5 3.5T686.5 9 678 31v71q-55-59-125.5-92T396-23q-71 0-130.5 18.5t-103 55T95 141 71 267zm104 693zm102 299q0 47 15.5 84t46 62.5T413 1444t101 13q113 0 171.5-49t58.5-142q0-47-16-84t-46.5-62.5-74.5-39-101-13.5q-58 0-101 13t-71.5 37.5-42.5 60-14 81.5zm40-984q0-56 35.5-88t98.5-32q53 0 97.5 27t90.5 79v152h-96q-61 0-104-9t-70-27-39.5-43.5T317 275zm110 989q0-41 19.5-64t65.5-23q41 0 61.5 22.5T594 1261t-20.5 62.5T508 1347q-40 0-60.5-22t-20.5-61z"/><glyph unicode="æ" horiz-adv-x="1587" d="M71 266q0 79 30.5 136.5t91 95T343 553t209 18h87v54q0 42-8.5 73.5t-28 52.5-52 31-80.5 10q-63 0-112.5-14T270 747t-64.5-31-41.5-14q-11 0-19.5 7T131 729t-8 32-3 42q0 31 5 49t19 32.5 49 32 82 32.5 102.5 24.5T492 983t106.5-8 85-24 65.5-39.5 48-52.5q48 60 124.5 92t174.5 32q107 0 184-33t127.5-92 74.5-139 24-174v-39q0-46-20.5-68t-56.5-22H886q0-57 13.5-103.5t43.5-79 77.5-49.5 114.5-17q64 0 113 9.5t85 21 60.5 21 38.5 9.5q9 0 15-3.5t10-12.5 6-25.5 2-41.5q0-22-1-37.5t-3.5-26.5-6-18.5T1444 48t-36-19-73.5-23.5-102-20T1111-23q-73 0-131.5 10.5t-104 31-80 49.5-60.5 66q-33-41-72-70t-82-49-89.5-29-95.5-9q-71 0-130.5 18.5t-103 55T95 141 71 266zm246 9q0-56 35.5-88t98.5-32q53 0 102 30t102 94q-10 27-14 64t-4 70h-94q-61 0-104-9t-70-27-39.5-43.5T317 275zm569 303h377q1 53-10 95t-33.5 71-57.5 45-82 16q-49 0-84.5-18t-59-48.5-36-72T886 578z"/><glyph unicode="ç" horiz-adv-x="857" d="M72 463q0 134 33.5 231.5T199 856t142 95 180 31q40 0 78.5-7t72-19 60-27 37.5-26 15.5-18.5 7-19.5 4-29.5T797 793q0-58-10-81.5T761 688q-17 0-36 14t-45 31-62 31-86 14q-98 0-150-75.5T330 481q0-72 13-127t38.5-92 64-55.5T535 188q52 0 89.5 15.5T690 238t47 34.5 32 15.5q9 0 15-5t9.5-18.5T799 230t2-54q0-26-1.5-43.5t-4-29.5-6-19.5-15.5-19T732 36 660.5 4.5 572-16l22-50q18-39 26-68t8-56q0-46-16.5-79t-46-54-68-31.5T414-365q-44 0-81.5 6T270-346t-35.5 12-14.5 13-6 20.5-2 34.5q0 40 7.5 55.5T247-195h116q29 0 43 12.5t14 34.5q0 12-4.5 27T404-90L365-5q-98 25-163 87.5t-97.5 158T72 463z"/><glyph unicode="è" horiz-adv-x="1031" d="M74 470q0 119 31 214.5t90 162T338.5 948 529 983q112 0 191.5-33T851 858.5 926 720t24-174v-40q0-46-20.5-68T873 416H330q0-57 13.5-103.5t43-79 76-49.5T574 167q66 0 116 9.5t86.5 21 60.5 21 39 9.5q9 0 15-3.5t10-12.5 5.5-25.5T908 145q0-22-1-37.5T904 81t-6-18.5T887.5 48 852 29 778 5.5t-103-20T551-23Q432-23 342.5 7T193 98t-89.5 154T74 470zm44 490zm102 411q-1 10 10.5 17.5T269 1400t73 4q33 0 55.5-2t37.5-6.5 24.5-12.5 17.5-19l143-229q9-13 11-23t-6.5-16.5-28-9.5-54.5-3q-29 0-48 2t-32 6-21.5 10.5T424 1118l-193 232q-10 11-11 21zm110-793h376q3 106-42.5 166.5T523 805q-48 0-83.5-18t-59-48.5-36-72T330 578z"/><glyph unicode="é" horiz-adv-x="1031" d="M74 470q0 119 31 214.5t90 162T338.5 948 529 983q112 0 191.5-33T851 858.5 926 720t24-174v-40q0-46-20.5-68T873 416H330q0-57 13.5-103.5t43-79 76-49.5T574 167q66 0 116 9.5t86.5 21 60.5 21 39 9.5q9 0 15-3.5t10-12.5 5.5-25.5T908 145q0-22-1-37.5T904 81t-6-18.5T887.5 48 852 29 778 5.5t-103-20T551-23Q432-23 342.5 7T193 98t-89.5 154T74 470zm235 490zm21-382h376q3 106-42.5 166.5T523 805q-48 0-83.5-18t-59-48.5-36-72T330 578zm81.5 534q1.5 10 10.5 23l143 229q7 11 17 19t25 12.5 38 6.5 56 2q46 0 72.5-4t38-11.5T822 1371t-10-21l-194-232q-8-10-16-16.5t-20.5-10.5-31.5-6-48-2q-35 0-55.5 3t-28.5 9.5-6.5 16.5z"/><glyph unicode="ê" horiz-adv-x="1031" d="M74 470q0 119 31 214.5t90 162T338.5 948 529 983q112 0 191.5-33T851 858.5 926 720t24-174v-40q0-46-20.5-68T873 416H330q0-57 13.5-103.5t43-79 76-49.5T574 167q66 0 116 9.5t86.5 21 60.5 21 39 9.5q9 0 15-3.5t10-12.5 5.5-25.5T908 145q0-22-1-37.5T904 81t-6-18.5T887.5 48 852 29 778 5.5t-103-20T551-23Q432-23 342.5 7T193 98t-89.5 154T74 470zm36 490zm103.5 158q5.5 13 19.5 31l158 223q6 10 15.5 15.5t25 9.5 37.5 5.5 53 1.5q32 0 53.5-2t36-6 23.5-10 16-14l157-223q14-19 19-31.5t-2-20-28.5-11-60.5-3.5q-32 0-50.5 1.5t-30 5.5-17.5 10.5-13 17.5l-104 150-104-150q-7-11-14-18t-19-10.5-30.5-5-48.5-1.5q-40 0-61.5 3.5t-28.5 11-1.5 20.5zM330 578h376q3 106-42.5 166.5T523 805q-48 0-83.5-18t-59-48.5-36-72T330 578z"/><glyph unicode="ë" horiz-adv-x="1031" d="M74 470q0 119 31 214.5t90 162T338.5 948 529 983q112 0 191.5-33T851 858.5 926 720t24-174v-40q0-46-20.5-68T873 416H330q0-57 13.5-103.5t43-79 76-49.5T574 167q66 0 116 9.5t86.5 21 60.5 21 39 9.5q9 0 15-3.5t10-12.5 5.5-25.5T908 145q0-22-1-37.5T904 81t-6-18.5T887.5 48 852 29 778 5.5t-103-20T551-23Q432-23 342.5 7T193 98t-89.5 154T74 470zm22 490zm102 262q0 72 27 99t100 27q76 0 101.5-26.5T452 1227q0-70-26.5-97.5T325 1102q-75 0-101 26.5t-26 93.5zm132-644h376q3 106-42.5 166.5T523 805q-48 0-83.5-18t-59-48.5-36-72T330 578zm259 644q0 72 26.5 99t100.5 27q75 0 101-26.5t26-94.5q0-70-26.5-97.5T715 1102q-74 0-100 26.5t-26 93.5z"/><glyph unicode="ì" horiz-adv-x="503" d="M-136 960zm102 411q-1 10 10.5 17.5T15 1400t73 4q33 0 55.5-2t37.5-6.5 24.5-12.5 17.5-19l143-229q9-13 11-23t-6.5-16.5-28-9.5-54.5-3q-29 0-48 2t-32 6-21.5 10.5T170 1118l-193 232q-10 11-11 21zM126 34v892q0 10 6 17.5t20.5 12.5 38.5 7.5 61 2.5 61-2.5 38.5-7.5 20.5-12.5 6-17.5V34q0-10-6-17.5T351.5 4 313-3.5 252-6t-61 2.5T152.5 4 132 16.5 126 34z"/><glyph unicode="í" horiz-adv-x="503" d="M26 960zM126 34v892q0 10 6 17.5t20.5 12.5 38.5 7.5 61 2.5 61-2.5 38.5-7.5 20.5-12.5 6-17.5V34q0-10-6-17.5T351.5 4 313-3.5 252-6t-61 2.5T152.5 4 132 16.5 126 34zm2.5 1078q1.5 10 10.5 23l143 229q7 11 17 19t25 12.5 38 6.5 56 2q46 0 72.5-4t38-11.5T539 1371t-10-21l-194-232q-8-10-16-16.5t-20.5-10.5-31.5-6-48-2q-35 0-55.5 3t-28.5 9.5-6.5 16.5z"/><glyph unicode="î" horiz-adv-x="503" d="M-157 960zm103.5 158q5.5 13 19.5 31l158 223q6 10 15.5 15.5t25 9.5 37.5 5.5 53 1.5q32 0 53.5-2t36-6 23.5-10 16-14l157-223q14-19 19-31.5t-2-20-28.5-11-60.5-3.5q-32 0-50.5 1.5t-30 5.5-17.5 10.5-13 17.5l-104 150-104-150q-7-11-14-18t-19-10.5-30.5-5T38 1083q-40 0-61.5 3.5t-28.5 11-1.5 20.5zM126 34v892q0 10 6 17.5t20.5 12.5 38.5 7.5 61 2.5 61-2.5 38.5-7.5 20.5-12.5 6-17.5V34q0-10-6-17.5T351.5 4 313-3.5 252-6t-61 2.5T152.5 4 132 16.5 126 34z"/><glyph unicode="ï" horiz-adv-x="503" d="M-138 960zm102 262q0 71 26 98.5t95 27.5q72 0 97-26.5t25-94.5q0-70-26-97.5T85 1102q-71 0-96 26.5t-25 93.5zM126 34v892q0 10 6 17.5t20.5 12.5 38.5 7.5 61 2.5 61-2.5 38.5-7.5 20.5-12.5 6-17.5V34q0-10-6-17.5T351.5 4 313-3.5 252-6t-61 2.5T152.5 4 132 16.5 126 34zm175 1188q0 71 25.5 98.5T422 1348q71 0 96-26.5t25-94.5q0-70-26-97.5t-96-27.5q-71 0-95.5 26.5T301 1222z"/><glyph unicode="ð" horiz-adv-x="1099" d="M76 468q0 128 28 224.5t79 161 122.5 97T465 983q31 0 59.5-5.5T580 961t53-28 54-40q-9 23-21 49.5T638 997t-37.5 59-48.5 63l-263-64q-13-3-21.5-2t-13.5 9-7 23-2 40q0 23 2 38.5t7 25 14 14.5 22 7l148 37q-9 10-21 22.5t-24.5 25.5l-25 26-22.5 24q-9 9-11 18t9.5 15.5 41 11 82.5 4.5q44 0 70.5-2t44-6 28-10.5T631 1359q19-21 33.5-36.5T681 1304l247 59q12 3 20.5 2t14-8 7.5-22 2-40q0-23-2-39t-7.5-25.5-14-14.5-21.5-8l-136-33q54-72 92-141.5T944.5 892 978 743t10-166q0-149-30.5-261.5t-91-188T715 14.5 505-23q-116 0-197.5 34t-133 97.5-75 154.5T76 468zm256 17q0-60 9.5-114t30.5-94 55.5-63.5T513 190q54 0 95 20.5t68 63.5 40.5 108.5T730 539q0 27-.5 52.5T727 633q-31 34-58.5 59.5T615 735t-50.5 25.5T516 769q-46 0-81-22t-57.5-60-34-90T332 485z"/><glyph unicode="ñ" horiz-adv-x="1099" d="M99 960zm27-926v892q0 10 5 17.5t18 12.5 33.5 7.5T234 966q32 0 53-2.5t32.5-7.5 16.5-12.5 5-17.5V823q74 80 150.5 120T651 983q91 0 153.5-30t101-81.5T961 751t17-166V34q0-10-6-17.5T952 4t-38.5-7.5T853-6q-37 0-61.5 2.5T753 4t-20 12.5-6 17.5v509q0 65-9.5 102T690 708.5t-46.5 41T577 764q-48 0-97-35T378 627V34q0-10-6-17.5T351.5 4 313-3.5 252-6t-61 2.5T152.5 4 132 16.5 126 34zm74 1093q0 116 56 182.5t160 66.5q57 0 96.5-17.5t70-39 56.5-39 54-17.5q30 0 46 21.5t16 63.5q0 17 15 22.5t61 5.5q45 0 61.5-7.5T909 1336q0-121-57.5-185.5T692 1086q-39 0-69 8t-54 21-43.5 27.5-37.5 27-35.5 21-37.5 8.5q-33 0-47-23.5t-14-61.5q0-9-3.5-14.5t-12-8.5-24-4-39.5-1q-21 0-35.5 1.5t-23 6T204 1106t-4 21z"/><glyph unicode="ò" horiz-adv-x="1101" d="M72 471q0 114 30.5 208.5t91.5 162T346.5 946 561 983q120 0 208-32.5T914.5 855t85.5-155 28-211q0-114-30-208t-91-162T754 14 539-23q-119 0-207 33t-146 96-86 155-28 210zm82 489zm102 411q-1 10 10.5 17.5T305 1400t73 4q33 0 55.5-2t37.5-6.5 24.5-12.5 17.5-19l143-229q9-13 11-23t-6.5-16.5-28-9.5-54.5-3q-29 0-48 2t-32 6-21.5 10.5T460 1118l-193 232q-10 11-11 21zm75-889q0-66 11-121.5t35.5-96.5 66.5-63.5T548 178q57 0 99 20.5t69 59.5 40 94.5T769 479q0 66-10.5 121.5T723 697t-66.5 64T552 784q-56 0-98-20.5t-69-60-40.5-95T331 482z"/><glyph unicode="ó" horiz-adv-x="1101" d="M72 471q0 114 30.5 208.5t91.5 162T346.5 946 561 983q120 0 208-32.5T914.5 855t85.5-155 28-211q0-114-30-208t-91-162T754 14 539-23q-119 0-207 33t-146 96-86 155-28 210zm259 11q0-66 11-121.5t35.5-96.5 66.5-63.5T548 178q57 0 99 20.5t69 59.5 40 94.5T769 479q0 66-10.5 121.5T723 697t-66.5 64T552 784q-56 0-98-20.5t-69-60-40.5-95T331 482zm12 478zm102.5 152q1.5 10 10.5 23l143 229q7 11 17 19t25 12.5 38 6.5 56 2q46 0 72.5-4t38-11.5T856 1371t-10-21l-194-232q-8-10-16-16.5t-20.5-10.5-31.5-6-48-2q-35 0-55.5 3t-28.5 9.5-6.5 16.5z"/><glyph unicode="ô" horiz-adv-x="1101" d="M72 471q0 114 30.5 208.5t91.5 162T346.5 946 561 983q120 0 208-32.5T914.5 855t85.5-155 28-211q0-114-30-208t-91-162T754 14 539-23q-119 0-207 33t-146 96-86 155-28 210zm69 489zm103.5 158q5.5 13 19.5 31l158 223q6 10 15.5 15.5t25 9.5 37.5 5.5 53 1.5q32 0 53.5-2t36-6 23.5-10 16-14l157-223q14-19 19-31.5t-2-20-28.5-11-60.5-3.5q-32 0-50.5 1.5t-30 5.5-17.5 10.5-13 17.5l-104 150-104-150q-7-11-14-18t-19-10.5-30.5-5-48.5-1.5q-40 0-61.5 3.5t-28.5 11-1.5 20.5zM331 482q0-66 11-121.5t35.5-96.5 66.5-63.5T548 178q57 0 99 20.5t69 59.5 40 94.5T769 479q0 66-10.5 121.5T723 697t-66.5 64T552 784q-56 0-98-20.5t-69-60-40.5-95T331 482z"/><glyph unicode="õ" horiz-adv-x="1101" d="M72 471q0 114 30.5 208.5t91.5 162T346.5 946 561 983q120 0 208-32.5T914.5 855t85.5-155 28-211q0-114-30-208t-91-162T754 14 539-23q-119 0-207 33t-146 96-86 155-28 210zm25 489zm101 167q0 116 56 182.5t160 66.5q57 0 96.5-17.5t70-39 56.5-39 54-17.5q30 0 46 21.5t16 63.5q0 17 15 22.5t61 5.5q45 0 61.5-7.5T907 1336q0-121-57.5-185.5T690 1086q-39 0-69 8t-54 21-43.5 27.5-37.5 27-35.5 21-37.5 8.5q-33 0-47-23.5t-14-61.5q0-9-3.5-14.5t-12-8.5-24-4-39.5-1q-21 0-35.5 1.5t-23 6T202 1106t-4 21zm133-645q0-66 11-121.5t35.5-96.5 66.5-63.5T548 178q57 0 99 20.5t69 59.5 40 94.5T769 479q0 66-10.5 121.5T723 697t-66.5 64T552 784q-56 0-98-20.5t-69-60-40.5-95T331 482z"/><glyph unicode="ö" horiz-adv-x="1101" d="M72 471q0 114 30.5 208.5t91.5 162T346.5 946 561 983q120 0 208-32.5T914.5 855t85.5-155 28-211q0-114-30-208t-91-162T754 14 539-23q-119 0-207 33t-146 96-86 155-28 210zm57 489zm102 262q0 72 27 99t100 27q76 0 101.5-26.5T485 1227q0-70-26.5-97.5T358 1102q-75 0-101 26.5t-26 93.5zm100-740q0-66 11-121.5t35.5-96.5 66.5-63.5T548 178q57 0 99 20.5t69 59.5 40 94.5T769 479q0 66-10.5 121.5T723 697t-66.5 64T552 784q-56 0-98-20.5t-69-60-40.5-95T331 482zm291 740q0 72 26.5 99t100.5 27q75 0 101-26.5t26-94.5q0-70-26.5-97.5T748 1102q-74 0-100 26.5t-26 93.5z"/><glyph unicode="÷" d="M34 576q0 27 2 45.5t6.5 29.5T54 667t16 5h869q8 0 15-5t11.5-16 7.5-29.5 3-45.5-3-45.5-7.5-30T954 484t-15-5H70q-9 0-16 5t-11.5 16.5-6.5 30-2 45.5zm325-384q0 43 7 72.5t23.5 47.5 44.5 26 70 8q41 0 69.5-8t45-26 24-47.5T650 192q0-41-7.5-69.5t-24-46-45-25.5-69.5-8q-42 0-70 8t-44.5 25.5-23.5 46-7 69.5zm0 762q0 42 7 71.5t23.5 47.5 44.5 26.5 70 8.5q41 0 69.5-8.5t45-26.5 24-47.5T650 954t-7.5-70-24-46-45-26-69.5-8q-42 0-70 8t-44.5 26-23.5 46-7 70z"/><glyph unicode="ø" horiz-adv-x="1114" d="M72 471q0 115 30.5 209T195 841.5 350 946t218 37q33 0 65-3.5t62-10.5l63 132q8 15 30.5 22t67.5 7q60 0 78.5-11t6.5-36l-82-172q47-30 81.5-73t57-97 33.5-117.5 11-134.5q0-114-31-208t-93-162T763 14 546-23q-38 0-69.5 4T418-8l-66-138q-7-16-31-22.5t-68-6.5q-60 0-78 11.5t-6 35.5l85 178q-47 30-81.5 73.5t-57 97.5-33 117.5T72 471zm238 5q0-59 12.5-113.5T367 271l249 521q-13 4-30.5 6.5T550 801q-60 0-105-22t-75-63-45-102-15-138zm189-306q13-5 30.5-7.5T563 160q60 0 105.5 21.5t75.5 63 45 102T804 486q0 28-3 56t-9.5 55-17.5 50-27 42z"/><glyph unicode="ù" horiz-adv-x="1099" d="M121 380v546q0 10 5.5 17.5t20 12.5 39 7.5T246 966q37 0 61-2.5t38.5-7.5 20.5-12.5 6-17.5V422q0-70 9-107t27.5-63.5 47-41T522 196q48 0 96.5 35T722 333v593q0 10 5.5 17.5t20 12.5 38.5 7.5 61 2.5 61-2.5 38-7.5 20-12.5 6-17.5V34q0-10-5-17.5T949.5 4t-33-7.5T865-6q-33 0-53.5 2.5T779 4t-17 12.5-5 17.5v103Q683 57 606.5 17T448-23q-92 0-154.5 30t-101 82-55 120.5T121 380zm11 580zm102 411q-1 10 10.5 17.5T283 1400t73 4q33 0 55.5-2t37.5-6.5 24.5-12.5 17.5-19l143-229q9-13 11-23t-6.5-16.5-28-9.5-54.5-3q-29 0-48 2t-32 6-21.5 10.5T438 1118l-193 232q-10 11-11 21z"/><glyph unicode="ú" horiz-adv-x="1099" d="M121 380v546q0 10 5.5 17.5t20 12.5 39 7.5T246 966q37 0 61-2.5t38.5-7.5 20.5-12.5 6-17.5V422q0-70 9-107t27.5-63.5 47-41T522 196q48 0 96.5 35T722 333v593q0 10 5.5 17.5t20 12.5 38.5 7.5 61 2.5 61-2.5 38-7.5 20-12.5 6-17.5V34q0-10-5-17.5T949.5 4t-33-7.5T865-6q-33 0-53.5 2.5T779 4t-17 12.5-5 17.5v103Q683 57 606.5 17T448-23q-92 0-154.5 30t-101 82-55 120.5T121 380zm221 580zm102.5 152q1.5 10 10.5 23l143 229q7 11 17 19t25 12.5 38 6.5 56 2q46 0 72.5-4t38-11.5T855 1371t-10-21l-194-232q-8-10-16-16.5t-20.5-10.5-31.5-6-48-2q-35 0-55.5 3t-28.5 9.5-6.5 16.5z"/><glyph unicode="û" horiz-adv-x="1099" d="M121 380v546q0 10 5.5 17.5t20 12.5 39 7.5T246 966q37 0 61-2.5t38.5-7.5 20.5-12.5 6-17.5V422q0-70 9-107t27.5-63.5 47-41T522 196q48 0 96.5 35T722 333v593q0 10 5.5 17.5t20 12.5 38.5 7.5 61 2.5 61-2.5 38-7.5 20-12.5 6-17.5V34q0-10-5-17.5T949.5 4t-33-7.5T865-6q-33 0-53.5 2.5T779 4t-17 12.5-5 17.5v103Q683 57 606.5 17T448-23q-92 0-154.5 30t-101 82-55 120.5T121 380zm17 580zm103.5 158q5.5 13 19.5 31l158 223q6 10 15.5 15.5t25 9.5 37.5 5.5 53 1.5q32 0 53.5-2t36-6 23.5-10 16-14l157-223q14-19 19-31.5t-2-20-28.5-11-60.5-3.5q-32 0-50.5 1.5t-30 5.5-17.5 10.5-13 17.5l-104 150-104-150q-7-11-14-18t-19-10.5-30.5-5-48.5-1.5q-40 0-61.5 3.5t-28.5 11-1.5 20.5z"/><glyph unicode="ü" horiz-adv-x="1099" d="M121 380v546q0 10 5.5 17.5t20 12.5 39 7.5T246 966q37 0 61-2.5t38.5-7.5 20.5-12.5 6-17.5V422q0-70 9-107t27.5-63.5 47-41T522 196q48 0 96.5 35T722 333v593q0 10 5.5 17.5t20 12.5 38.5 7.5 61 2.5 61-2.5 38-7.5 20-12.5 6-17.5V34q0-10-5-17.5T949.5 4t-33-7.5T865-6q-33 0-53.5 2.5T779 4t-17 12.5-5 17.5v103Q683 57 606.5 17T448-23q-92 0-154.5 30t-101 82-55 120.5T121 380zm4 580zm102 262q0 72 27 99t100 27q76 0 101.5-26.5T481 1227q0-70-26.5-97.5T354 1102q-75 0-101 26.5t-26 93.5zm391 0q0 72 26.5 99t100.5 27q75 0 101-26.5t26-94.5q0-70-26.5-97.5T744 1102q-74 0-100 26.5t-26 93.5z"/><glyph unicode="ý" horiz-adv-x="970" d="M22 918.5q0 18.5 12 29T74.5 962t75.5 4q43 0 68-1.5t39-7.5 21-18.5 14-35.5l210-597h3l192 609q6 26 15.5 34.5T744 962t77 4q43 0 71.5-4t42-15 13.5-29.5-8-43.5L643 0 535-316q-9-25-49-36t-117-11q-40 0-64 3.5T269-348t-13 20 6 29L381 0q-13 6-23.5 18.5T342 45L35 865q-13 35-13 53.5zM289 960zm102.5 152q1.5 10 10.5 23l143 229q7 11 17 19t25 12.5 38 6.5 56 2q46 0 72.5-4t38-11.5T802 1371t-10-21l-194-232q-8-10-16-16.5t-20.5-10.5-31.5-6-48-2q-35 0-55.5 3t-28.5 9.5-6.5 16.5z"/><glyph unicode="þ" horiz-adv-x="1099" d="M126-320v1669q0 10 6 18t20.5 13.5 38.5 8.5 61 3 61-3 38.5-8.5T372 1367t6-18V856q34 32 67 56t67 39.5 70.5 23.5 77.5 8q98 0 167.5-39t113-105.5 63.5-156 20-190.5q0-119-25-214.5T924.5 115t-122-102.5T636-23q-39 0-72 7.5t-63.5 23T440 46t-62 54v-420q0-10-6-18t-20.5-13.5T313-360t-61-3-61 3-38.5 8.5T132-338t-6 18zm252 651q53-67 101.5-103.5T580 191q49 0 83.5 25t56.5 65.5 32 91T762 474q0 57-8.5 110t-29 94-54.5 65.5-84 24.5q-25 0-49-7.5T487.5 736 435 692t-57-67V331z"/><glyph unicode="ÿ" horiz-adv-x="970" d="M22 918.5q0 18.5 12 29T74.5 962t75.5 4q43 0 68-1.5t39-7.5 21-18.5 14-35.5l210-597h3l192 609q6 26 15.5 34.5T744 962t77 4q43 0 71.5-4t42-15 13.5-29.5-8-43.5L643 0 535-316q-9-25-49-36t-117-11q-40 0-64 3.5T269-348t-13 20 6 29L381 0q-13 6-23.5 18.5T342 45L35 865q-13 35-13 53.5zM66 960zm102 262q0 72 27 99t100 27q76 0 101.5-26.5T422 1227q0-70-26.5-97.5T295 1102q-75 0-101 26.5t-26 93.5zm391 0q0 72 26.5 99t100.5 27q75 0 101-26.5t26-94.5q0-70-26.5-97.5T685 1102q-74 0-100 26.5t-26 93.5z"/><glyph unicode="Œ" horiz-adv-x="1790" d="M80 640q0 157 40 282.5t119 213T434.5 1270t270.5 47q74 0 142-15t116-38q9 17 24.5 23.5t34.5 6.5h632q9 0 16-5t12-17.5 7.5-32 2.5-49.5q0-28-2.5-47.5t-7.5-31.5-12-17.5-16-5.5h-462V771h392q8 0 15.5-5t12.5-17 7.5-31.5 2.5-47.5q0-29-2.5-48.5T1612 590t-12.5-17-15.5-5h-392V206h466q9 0 16.5-5.5T1687 183t7.5-31.5 2.5-48.5-2.5-48.5T1687 23t-12.5-17.5T1658 0h-634q-20 0-37 8.5T964 38Q908 8 836-7.5T681-23q-151 0-263.5 38.5T230 135 117.5 341.5 80 640zm276 14q0-107 16-192t54-145 102-91.5T689 194q71 0 130.5 19T930 270v761q-52 35-109 52.5T696 1101q-97 0-162-36t-105-97-56.5-142.5T356 654z"/><glyph unicode="œ" horiz-adv-x="1726" d="M72 472q0 114 30.5 208T194 841.5 346.5 946 561 983q118 0 202-39t141-119q56 81 136.5 119.5T1226 983q111 0 190-33t130-91.5 74.5-138.5 23.5-174v-40q0-46-20.5-68t-55.5-22h-543q0-57 13-103.5t43-79 76.5-49.5 112.5-17q65 0 114.5 9.5t86.5 21 61 21 38 9.5q9 0 15.5-3.5T1596 212t5.5-25.5 1.5-41.5q0-22-1-36.5t-3-25.5-5.5-19.5-11-15.5-36-19-74-24-103-20-123.5-8q-124 0-213.5 37T885 135Q829 56 742 16.5T540-23q-120 0-207.5 33t-146 96T100 261 72 472zm259 10q0-66 11-122t35.5-96.5T444 200t104-23q57 0 99 20.5t69 59.5 40 95 13 126q0 66-10.5 122T723 697.5 656.5 762 552 785q-56 0-98-21t-69-60-40.5-95T331 482zm694 96h376q3 106-42.5 166.5T1218 805q-48 0-84-18t-59.5-48.5-35.5-72-14-88.5z"/><glyph unicode="Ÿ" horiz-adv-x="1064" d="M21.5 1253.5q-5.5 20.5 6 31t42.5 13 86 2.5q46 0 73.5-2t43.5-7.5 23.5-14.5 14.5-23l144-318q21-46 41.5-97T538 731h2q19 54 39 105t39 97l142 316q5 16 12.5 25.5T795 1290t41 8 69 2q57 0 88.5-2.5t43-13 5.5-31.5-24-57L664 491V36q0-10-6.5-18T636 5t-40.5-8T532-6q-39 0-64 3t-40.5 8T406 18t-6 18v455L46 1196q-19 37-24.5 57.5zM85 1294zm102 236q0 71 28 98.5t104 27.5q78 0 104.5-26.5T450 1534q0-70-27.5-98T318 1408t-104 27-27 95zm437 0q0 71 27.5 98.5T756 1656t104-26.5 27-95.5q0-70-28-98t-105-28-103.5 27-26.5 95z"/><glyph unicode="ˆ" horiz-adv-x="822" d="M0 960zm103.5 158q5.5 13 19.5 31l158 223q6 10 15.5 15.5t25 9.5 37.5 5.5 53 1.5q32 0 53.5-2t36-6 23.5-10 16-14l157-223q14-19 19-31.5t-2-20-28.5-11-60.5-3.5q-32 0-50.5 1.5t-30 5.5-17.5 10.5-13 17.5l-104 150-104-150q-7-11-14-18t-19-10.5-30.5-5-48.5-1.5q-40 0-61.5 3.5t-28.5 11-1.5 20.5z"/><glyph unicode="˜" horiz-adv-x="910" d="M0 960zm101 167q0 116 56 182.5t160 66.5q57 0 96.5-17.5t70-39 56.5-39 54-17.5q30 0 46 21.5t16 63.5q0 17 15 22.5t61 5.5q45 0 61.5-7.5T810 1336q0-121-57.5-185.5T593 1086q-39 0-69 8t-54 21-43.5 27.5-37.5 27-35.5 21-37.5 8.5q-33 0-47-23.5t-14-61.5q0-9-3.5-14.5t-12-8.5-24-4-39.5-1q-21 0-35.5 1.5t-23 6T105 1106t-4 21z"/><glyph horiz-adv-x="876"/><glyph horiz-adv-x="1753"/><glyph horiz-adv-x="876"/><glyph horiz-adv-x="1753"/><glyph horiz-adv-x="584"/><glyph horiz-adv-x="438"/><glyph horiz-adv-x="292"/><glyph horiz-adv-x="292"/><glyph horiz-adv-x="219"/><glyph horiz-adv-x="350"/><glyph horiz-adv-x="97"/><glyph unicode="‐" horiz-adv-x="627" d="M59 503q0 56 11 79t36 23h416q12 0 20.5-5t14.5-17 8.5-32 2.5-48q0-58-11-81t-35-23H106q-25 0-36 23.5T59 503z"/><glyph unicode="‑" horiz-adv-x="627" d="M59 503q0 56 11 79t36 23h416q12 0 20.5-5t14.5-17 8.5-32 2.5-48q0-58-11-81t-35-23H106q-25 0-36 23.5T59 503z"/><glyph unicode="‒" horiz-adv-x="627" d="M59 503q0 56 11 79t36 23h416q12 0 20.5-5t14.5-17 8.5-32 2.5-48q0-58-11-81t-35-23H106q-25 0-36 23.5T59 503z"/><glyph unicode="–" d="M-11 568q0 56 10.5 79.5T36 671h946q12 0 21-5t14-17.5 8-32 3-48.5q0-55-10.5-78.5T982 466H36q-26 0-36.5 23.5T-11 568z"/><glyph unicode="—" horiz-adv-x="1854" d="M131 568q0 56 11.5 80t36.5 24h1498q24 0 35-23t11-81q0-57-12-79.5t-34-22.5H179q-23 0-35.5 22.5T131 568z"/><glyph unicode="‘" horiz-adv-x="528" d="M107 924q0 39 3.5 71.5T123 1057t23 56.5 35 56.5l134 193q7 10 15 17t20.5 11.5 30 6.5 41.5 2q30 0 48-2t26-7.5 8-13.5-4-19l-122-277V924q0-34-8-55t-25-32-43.5-14.5T239 819q-35 0-60 3.5T137.5 837 114 869t-7 55z"/><glyph unicode="’" horiz-adv-x="528" d="M23.5 841.5Q23 850 28 861l122 276v157q0 34 8 55t25 32.5 43 15 63 3.5q35 0 60-3.5t41.5-15 24-32.5 7.5-55q0-39-4-71.5t-13-61.5-23-56.5-35-56.5L213 856q-7-10-15.5-17T177 827.5t-29-6.5-43-2q-29 0-47 2t-26 7-8.5 13.5z"/><glyph unicode="‚" horiz-adv-x="528" d="M23.5-269q-.5 8 4.5 19L150 26v158q0 34 8 55t25 32 43 14.5 63 3.5q35 0 60-3.5t41.5-14.5 24-32 7.5-55q0-40-4-72.5T405 50 382-6.5 347-63L213-255q-7-10-15.5-17T177-283t-29-6.5-43-2.5q-29 0-47 2.5T32-282t-8.5 13z"/><glyph unicode="“" horiz-adv-x="891" d="M100 930q0 38 3.5 70t11.5 61 21.5 56 32.5 55l128 191q7 10 14.5 17t19 11.5 27.5 6.5 39 2q26 0 42-2t24-7.5 8-13.5-4-19l-118-273V930q0-34-7.5-54.5t-23-31.5-39.5-14.5-57-3.5-56 3.5-37.5 14.5-21.5 31.5-7 54.5zm393 0q0 38 3.5 70t11.5 61 21.5 56 32.5 55l127 191q7 10 14.5 17t19 11.5 27.5 6.5 40 2q26 0 42-2t23.5-7.5 8-13.5-4.5-19l-117-273V930q0-34-7.5-54.5t-23-31.5-40-14.5T615 826q-33 0-56 3.5T521 844t-21.5 31.5T493 930z"/><glyph unicode="”" horiz-adv-x="891" d="M27.5 849q-.5 8 4.5 20l118 272v155q0 34 7 54.5t22.5 31.5 40 14.5 57.5 3.5 56-3.5 37.5-14.5 21.5-31.5 7-54.5q0-38-3.5-70t-11.5-61-21.5-56-32.5-55L201 863q-6-10-14-17t-19.5-11.5-27-6.5-38.5-2q-26 0-42.5 2t-24 7.5-8 13.5zm393 0q-.5 8 3.5 20l118 272v155q0 34 7.5 54.5T572 1382t39.5 14.5 57.5 3.5 56-3.5 37.5-14.5 21.5-31.5 7-54.5q0-38-3.5-70t-11.5-61-21-56-33-55L594 863q-7-10-14.5-17t-19-11.5T533 828t-39-2q-26 0-42 2t-23.5 7.5-8 13.5z"/><glyph unicode="„" horiz-adv-x="891" d="M27.5-266q-.5 8 4.5 19L150 26v155q0 34 7 54.5t22.5 31 40 14.5 57.5 4 56-4 37.5-14.5 21.5-31 7-54.5q0-38-3.5-70.5t-11.5-61-21.5-56T330-62L201-252q-6-10-14-17t-19.5-11.5-27-6.5-38.5-2q-26 0-42.5 2t-24 7.5-8 13.5zm393 0q-.5 8 3.5 19L542 26v155q0 34 7.5 54.5t22.5 31 39.5 14.5 57.5 4 56-4 37.5-14.5 21.5-31 7-54.5q0-38-3.5-70.5t-11.5-61-21-56T722-62L594-252q-7-10-14.5-17t-19-11.5T533-287t-39-2q-26 0-42 2t-23.5 7.5-8 13.5z"/><glyph unicode="•" d="M148 642q0 75 28 141t77 115 115.5 77 141.5 28 141-27.5 114.5-76 76.5-115T870 643t-28-141.5T765 386t-115.5-77T508 281t-141 28-114.5 76.5-76.5 115T148 642z"/><glyph unicode="…" horiz-adv-x="1457" d="M124 136q0 91 31 122t111 31q79 0 109.5-30.5T406 141q0-91-31-122T264-12q-79 0-109.5 30.5T124 136zm463 0q0 91 31 122t111 31q79 0 110-30.5T870 141q0-91-31.5-122T728-12q-80 0-110.5 30.5T587 136zm464 0q0 91 31 122t110 31q80 0 110.5-30.5T1333 141q0-91-31-122t-111-31q-79 0-109.5 30.5T1051 136z"/><glyph horiz-adv-x="350"/><glyph unicode="‹" horiz-adv-x="705" d="M88.5 528q.5 22 16.5 47l213 347q6 9 12.5 15.5t18.5 10 30.5 5.5 48.5 2q36 0 58.5-3.5t33-11 11-17.5-5.5-23L330 525l201-383q6-13 5.5-23.5t-11-17.5T493 90t-59-4q-29 0-47.5 2T356 93.5t-19 10-12 15.5L101 484q-13 22-12.5 44z"/><glyph unicode="›" horiz-adv-x="705" d="M169.5 922.5q.5 10.5 11 17.5t32.5 11 59 4q29 0 48-2t30.5-5.5 18.5-10 12-15.5l223-366q14-21 13.5-43T601 465L388 119q-6-9-12.5-15.5t-18.5-10-30.5-5.5-47.5-2q-38 0-60 3.5t-32.5 11T175 118t6 23l195 375-201 383q-6 13-5.5 23.5z"/><glyph horiz-adv-x="438"/><glyph unicode="€" horiz-adv-x="1038" d="M32 491q0 23 1.5 39t5 25.5 9 14T61 574h89q0 15-.5 31.5T149 638q0 20 .5 39.5t.5 37.5H61q-15 0-22 18.5T32 799q0 24 2.5 40t7 25.5T52 878t13 4h103q20 96 58.5 175.5t99 137 145 89T668 1315q52 0 100.5-7.5T856 1288t64.5-24.5T957 1242t16-18.5 8-23.5 5-35.5 2-52.5q0-27-2-44t-6.5-27.5-11-14.5-14.5-4q-16 0-37.5 14t-53 30.5-75.5 30-103 13.5q-56 0-98-15.5t-72.5-45.5-49.5-72-29-95h274q7 0 13.5-4t10.5-13.5 6.5-25.5 2.5-40q0-47-9-65.5T710 715H416q-1-16-1.5-32.5T414 646q0-18 .5-35.5T416 574h294q7 0 13.5-4.5t10.5-14 6.5-25.5 2.5-39q0-46-9-65.5T710 406H435q8-51 27-91.5t50.5-68.5 77-43T698 188q59 0 102.5 14t75.5 31 53.5 31 35.5 14q8 0 14.5-4t11-15.5 6.5-32 2-54.5q0-44-8-69.5T969 63t-40.5-28.5-65-27-88-20.5T666-21Q553-21 466 8T317 91.5t-100.5 134T161 406H65q-15 0-24 19.5T32 491z"/><glyph unicode="™" horiz-adv-x="1475" d="M50 1220q0 21 2 35.5t5.5 23 8 12T76 1294h422q5 0 9.5-3.5t8-12 5.5-23 2-35.5-2-34.5-5.5-21.5-8-11.5-9.5-3.5H374V733q0-5-4-9.5t-14-7.5-27-5-42-2q-27 0-44 2t-26.5 5-13.5 7.5-4 9.5v416H76q-6 0-10.5 3.5t-8 11.5-5.5 21.5-2 34.5zm562-487v506q0 26 13.5 40.5T663 1294h124q22 0 37.5-5.5T852 1272t20.5-28 14.5-39l94-280 99 280q13 41 34.5 65t60.5 24h118q26 0 39.5-14.5t13.5-40.5V733q0-5-3-9.5t-11.5-7.5-23-5-37.5-2-37.5 2-23 5-11.5 7.5-3 9.5v416h-2l-138-419q-3-12-22-16.5t-57-4.5q-37 0-54.5 5T901 730l-137 419h-2V733q0-5-3-9.5t-11-7.5-22.5-5-37.5-2q-24 0-38.5 2t-23 5-11.5 7.5-3 9.5z"/><glyph unicode="◼" horiz-adv-x="965" d="M0 0v965h965V0H0z"/></font>
</defs>
</svg>
